<?xml version="1.0" encoding="utf-8"?>
<!-- Generator: Adobe Illustrator 24.2.3, SVG Export Plug-In . SVG Version: 6.00 Build 0)  -->
<svg version="1.1" id="Layer_1" xmlns="http://www.w3.org/2000/svg" xmlns:xlink="http://www.w3.org/1999/xlink" x="0px" y="0px"
	 viewBox="0 0 361.3 506.5" style="enable-background:new 0 0 361.3 506.5;" xml:space="preserve">
<style type="text/css">
	.st0{fill:#444B84;}
	.st1{fill:#B0ACB0;}
	.st2{fill:#E9E9EA;}
	.st3{fill:#E5E5E5;}
	.st4{fill:#FFFFFF;}
	.st5{fill:#F0A247;}
	.st6{clip-path:url(#SVGID_2_);}
	.st7{opacity:0.5;enable-background:new    ;}
	.st8{opacity:0.9;fill:#444B84;enable-background:new    ;}
	.st9{opacity:0.5;}
	.st10{clip-path:url(#SVGID_4_);}
	.st11{fill:#FFD154;}
	.st12{fill:#FFC447;}
	.st13{fill:#FFD67A;}
	.st14{fill:#425060;}
	.st15{fill:#705240;}
	.st16{fill:#FF6669;}
	.st17{fill:#FF7388;}
	.st18{fill:#FF8194;}
	.st19{clip-path:url(#SVGID_6_);}
	.st20{fill:#FEB7B3;}
	.st21{fill:#1D1D1B;}
	.st22{fill:#A5DED8;}
	.st23{fill:#FFD58C;}
	.st24{fill:#FCCD6B;}
	.st25{fill:#AECD58;}
	.st26{clip-path:url(#SVGID_8_);}
	.st27{fill:#E8E8E8;}
	.st28{clip-path:url(#SVGID_10_);}
	.st29{clip-path:url(#SVGID_12_);}
	.st30{fill:#BCBCBC;}
	.st31{fill:#808080;}
	.st32{clip-path:url(#SVGID_14_);}
	.st33{fill:#A3A3A3;}
	.st34{fill:#9E9E9E;}
	.st35{fill:#999999;}
	.st36{fill:#949494;}
	.st37{fill:#8F8F8F;}
	.st38{fill:#8A8A8A;}
	.st39{fill:#858585;}
	.st40{fill:#DFDFDF;}
</style>
<g>
	<g>
		<path class="st0" d="M51.8,465.4c0-0.8,0.4-1.7,1.3-1.6c0.5,0.1,1.1,0.3,1.5,0.6c2.2,1.2,4.3,2.6,6.5,3.9c1,0.5,1.9,1.2,2.7,2
			c0.6,0.8,1,1.8,1,2.8c0,1.5-1,2.1-2.3,1.3c-1.7-1-3.4-2-5.1-3c-0.8-0.5-1.5-0.9-2.3-1.4c-0.9-0.4-1.7-1-2.3-1.8
			C52.2,467.4,51.8,466.4,51.8,465.4z M21.2,448.4c0-1,0.7-1.4,1.6-0.9c0.9,0.6,1.5,1.6,1.6,2.7c0,1-0.7,1.4-1.6,0.9
			C21.8,450.5,21.3,449.4,21.2,448.4L21.2,448.4z M17.5,446.2c0-1,0.7-1.4,1.6-0.9c0.9,0.6,1.5,1.6,1.6,2.7c0,1-0.7,1.4-1.6,0.9
			C18.2,448.3,17.6,447.2,17.5,446.2L17.5,446.2z M13.9,444c0-1,0.7-1.4,1.6-0.9c0.9,0.6,1.5,1.6,1.6,2.7c0,1-0.7,1.4-1.6,0.9
			C14.5,446.1,13.9,445,13.9,444L13.9,444z M324.3,318.6c0.1-2.1,1.2-4,3-5.1c1.6-1,3-0.2,3,1.7c-0.1,2.1-1.2,4-3,5.1
			C325.6,321.2,324.3,320.5,324.3,318.6z M0.9,426.8c0-0.2-0.1-0.4-0.1-0.5l1.8,9.5c0,0.2,0.1,0.5,0.2,0.7s0.1,0.5,0.2,0.7
			c0,0.1,0,0.1,0,0.2c0,0.1,0.1,0.1,0.1,0.2s0.2,0.5,0.3,0.7l0,0c0,0.1,0.1,0.1,0.1,0.2l0.1,0.2c0,0.1,0.1,0.2,0.2,0.3l0.2,0.4
			l0.2,0.4c0.2,0.3,0.3,0.5,0.5,0.8c0,0.1,0.1,0.1,0.1,0.2c0.2,0.3,0.5,0.7,0.7,1l0,0l0.5,0.5l0,0c0.1,0.1,0.2,0.2,0.3,0.3l0.4,0.4
			l0.4,0.4h0c0.7,0.7,1.5,1.3,2.3,1.8c0.3,0.2,0.6,0.4,0.9,0.5l100,57.7l0.5,0.3l0,0c0.3,0.2,0.6,0.3,0.9,0.5l0.8,0.4l0.5,0.2
			l0.8,0.3c0.5,0.2,1,0.4,1.6,0.5l0,0h0.1l0.5,0.1c0.4,0.1,0.8,0.2,1.2,0.3l0.3,0.1l0.3,0l0.4,0.1l0.3,0l0.4,0l0.7,0.1l1.1,0.1h0.7
			h1.7c0.6,0,1.2,0,1.7-0.1h0.4l0.7-0.1l0.7-0.1h0.2h0.1c0.5-0.1,1.1-0.2,1.6-0.3l0.4-0.1l1.1-0.3h0.2l0.5-0.1
			c0.6-0.2,1.1-0.3,1.6-0.5l0,0l0.8-0.3l0.8-0.3l0.5-0.2c0.4-0.2,0.8-0.4,1.2-0.5l0.5-0.2c0.5-0.3,1-0.5,1.5-0.8l0,0
			c0.5-0.3,1-0.6,1.4-0.9l0.4-0.3l0.4-0.1l0.3-0.2l0.5-0.4l0.4-0.3l0.3-0.3l0.7-0.6l0.3-0.3l212.6-204.6c4.5-4.4,6.3-9.6,5.4-14.4
			l-1.7-9c-0.2-1.3-0.6-2.5-1.1-3.7c-1.5-2.9-3.8-5.3-6.6-6.8l-100-57.8c-2.6-1.5-5.4-2.4-8.4-2.8c-0.7-0.1-1.4-0.2-2.1-0.2
			s-1.5-0.1-2.3-0.1l0,0c-0.7,0-1.5,0-2.2,0.1c-0.4,0-0.8,0.1-1.2,0.1l-0.4,0.1c-0.9,0.1-1.8,0.3-2.7,0.5h-0.2l-0.6,0.2
			c-2.6,0.7-5.2,1.7-7.5,3.1l-0.1,0.1c-0.7,0.4-1.4,0.9-2.1,1.4c-0.2,0.1-0.3,0.3-0.4,0.4l-0.1,0.1l-0.1,0.1l-0.5,0.4l-0.3,0.3
			c-1,0.9-1.9,1.9-2.8,2.8c-1.3,1.2-2.5,2.4-3.8,3.7c-0.2,0.2-0.4,0.4-0.6,0.6l-2,1.9l-1.6,1.6l-1.4,1.3l-1.8,1.7
			c-0.9,0.9-1.8,1.8-2.7,2.6l-3.1,2.9l-3.1,3l-3.4,3.2L190,235l-3.7,3.6l-3.9,3.7l-4,3.9l-4.2,4l-2.8,2.7l-2.9,2.8l-3,2.9l-4.6,4.4
			l-3.9,3.8l-6,5.8l-4.4,4.2l-4.9,4.7c-1.6,1.6-3.3,3.2-5,4.8l-4.6,4.4l-1,0.9l-4.5,4.4l-5.1,4.9l-1.9,1.9l-8.5,8.2l-4.9,4.7
			c-1.7,1.6-3.4,3.3-5.1,4.9l-5.1,4.9l-5,4.9l-5,4.8l-4.9,4.8l-4.9,4.7l-4.8,4.6l-4.7,4.5l-3,2.9l-7.5,7.3l-3,2.8l-4.3,4.1l-2.2,2.1
			l-6.8,6.6l-2.9,2.8l-3.7,3.5l-3.5,3.3l-3.3,3.2l-3.1,3l-2.9,2.8l-2.2,2.2l-0.9,0.9l-1.9,1.8l-0.8,0.8l-3.7,3.5l-1.2,1.2l-1.4,1.3
			l-0.9,0.9l-0.2,0.2l-0.7,0.7l-0.5,0.5l-0.1,0.1l-0.1,0.1c-2.6,2.3-4.4,5.4-5.3,8.8c-0.2,1.1-0.3,2.1-0.3,3.2
			c0,1.2,0.2,2.4,0.5,3.6l0.1,0.5c0-0.1-0.1-0.2-0.1-0.2l0,0c0-0.1-0.1-0.2-0.1-0.3C1,427.2,1,427,0.9,426.8z M335,307.9
			c0.1-2.1,1.2-4,3-5.1c1.6-1,3-0.2,3,1.7c-0.1,2.1-1.2,4-3,5.1C336.3,310.5,335,309.7,335,307.9z"/>
		<path class="st1" d="M64.8,473c0,1.5-1,2.1-2.3,1.3c-1.7-1-3.4-2-5.1-3c-0.8-0.5-1.5-0.9-2.3-1.4c-0.9-0.4-1.7-1-2.3-1.8
			c-0.6-0.8-1-1.8-1-2.8c0-0.8,0.4-1.7,1.3-1.6c0.5,0.1,1.1,0.3,1.5,0.6c2.2,1.2,4.3,2.6,6.5,3.9c1,0.5,1.9,1.2,2.7,2
			C64.4,471,64.8,472,64.8,473z M17,445.8c0,1-0.7,1.4-1.6,0.9c-0.9-0.6-1.5-1.6-1.6-2.7c0-1,0.7-1.4,1.6-0.9
			C16.3,443.7,16.9,444.7,17,445.8z M20.6,448c0,1-0.7,1.4-1.6,0.9c-0.9-0.6-1.5-1.6-1.6-2.7c0-1,0.7-1.4,1.6-0.9
			C20,445.8,20.6,446.8,20.6,448L20.6,448z M24.3,450.2c0,1-0.7,1.4-1.6,0.9c-0.9-0.6-1.5-1.6-1.6-2.7c0-1,0.7-1.4,1.6-0.9
			C23.7,448,24.3,449,24.3,450.2L24.3,450.2z M324.3,318.6c0.1-2.1,1.2-4,3-5.1c1.6-1,3-0.2,3,1.7c-0.1,2.1-1.2,4-3,5.1
			C325.6,321.2,324.3,320.5,324.3,318.6z M0.8,426.3l1.8,9.5c0,0.2,0.1,0.5,0.2,0.7s0.1,0.5,0.2,0.7c0,0.1,0,0.1,0,0.2l0.1,0.2
			c0.1,0.2,0.2,0.5,0.3,0.7l0,0c0,0.1,0.1,0.1,0.1,0.2c0,0.1,0,0.1,0.1,0.2c0.1,0.1,0.1,0.2,0.2,0.3c0.1,0.1,0.1,0.2,0.2,0.4
			c0.1,0.1,0.1,0.3,0.2,0.4c0.2,0.3,0.3,0.5,0.5,0.8l0.1,0.2c0.2,0.3,0.5,0.7,0.7,1l0,0l0.5,0.5l0,0c0.1,0.1,0.2,0.2,0.3,0.3
			l0.4,0.4l0.4,0.4h0c0.7,0.7,1.5,1.3,2.3,1.8c0.3,0.2,0.6,0.4,0.9,0.5l100,57.7l0.5,0.3l0,0c0.3,0.2,0.6,0.3,0.9,0.5l0.8,0.4
			l0.5,0.2l0.8,0.3c0.5,0.2,1.1,0.3,1.6,0.5l0,0h0.1l0.5,0.1c0.4,0.1,0.8,0.2,1.2,0.3l0.3,0.1l0.3,0.1l0.4,0.1l0.3,0l0.4,0.1
			l0.7,0.1l1.1,0.1h0.7h0.3c0.4,0,0.8,0,1.3,0l0,0c0.6,0,1.2,0,1.7-0.1h0.4l0.7-0.1l0.7-0.1h0.2h0.1c0.5-0.1,1.1-0.2,1.6-0.3
			l0.4-0.1l1.1-0.3h0.2l0.5-0.1c0.6-0.2,1.1-0.3,1.6-0.5l0,0c0.3-0.1,0.5-0.2,0.8-0.3l0.8-0.3l0.5-0.2c0.4-0.2,0.8-0.4,1.2-0.5
			l0.5-0.2c0.5-0.3,1-0.5,1.5-0.8l0,0c0.5-0.3,1-0.6,1.4-0.9l0.4-0.3l0.4-0.1l0.3-0.2l0.5-0.4l0.4-0.3l0.3-0.3l0.7-0.6l0.3-0.3
			l212.6-204.6c4.5-4.4,6.3-9.6,5.4-14.4l-1.8-9.5c0.2,0.8,0.2,1.7,0.2,2.5c0,4-1.8,8.3-5.6,11.9L140.6,489.5
			c-0.4,0.4-0.8,0.8-1.3,1.1l-0.4,0.3l-1,0.8l-0.4,0.3c-0.5,0.3-0.9,0.6-1.4,0.9l0,0c-0.5,0.3-1,0.6-1.5,0.8l-0.5,0.2
			c-0.4,0.2-0.8,0.4-1.2,0.5l-0.5,0.2c-0.5,0.2-1,0.4-1.6,0.6l0,0c-0.6,0.2-1.1,0.4-1.7,0.5l-0.5,0.1c-0.4,0.1-0.9,0.2-1.3,0.3
			l-0.4,0.1c-0.6,0.1-1.1,0.2-1.7,0.3H125c-0.5,0.1-1,0.1-1.5,0.2h-0.5c-0.6,0-1.2,0.1-1.7,0.1l0,0c-0.5,0-1.1,0-1.6,0H119l-1.1-0.1
			l-0.7-0.1c-0.4,0-0.8-0.1-1.1-0.2l-0.7-0.1c-0.4-0.1-0.8-0.2-1.2-0.3l-0.5-0.1c-0.6-0.1-1.1-0.3-1.7-0.5c-1.2-0.4-2.4-1-3.6-1.7
			l-100-57.7c-0.6-0.4-1.2-0.7-1.7-1.1s-1-0.8-1.5-1.2c-0.3-0.3-0.6-0.5-0.8-0.8c-0.1-0.1-0.2-0.2-0.3-0.3l-0.5-0.6
			c-0.3-0.3-0.5-0.6-0.7-1l-0.2-0.1c-0.2-0.3-0.3-0.5-0.5-0.8L2,429.9c-0.1-0.2-0.2-0.5-0.3-0.7l-0.2-0.4c-0.1-0.2-0.2-0.5-0.3-0.7
			c0-0.1,0-0.1,0-0.2c0-0.1-0.1-0.2-0.1-0.2l0,0c-0.1-0.3-0.2-0.5-0.2-0.8C0.8,426.7,0.8,426.5,0.8,426.3z M335,307.9
			c0.1-2.1,1.2-4,3-5.1c1.6-1,3-0.2,3,1.7c-0.1,2.1-1.2,4-3,5.1C336.3,310.5,335,309.7,335,307.9z"/>
		<path class="st2" d="M0.6,423.8c0,3.9,1.7,7.6,4.7,10.1c1,0.9,2.1,1.7,3.2,2.4l100,57.7c1.1,0.7,2.3,1.2,3.6,1.7
			c1.6,0.6,3.2,0.9,4.8,1.2l0.7,0.1c0.3,0,0.6,0.1,0.8,0.1c0.8,0.1,1.6,0.1,2.4,0.1c1.4,0,2.7-0.1,4.1-0.3l0.7-0.1l0.7-0.1
			c0.9-0.1,1.7-0.4,2.6-0.6l0.2,0c4.3-1.2,8.3-3.4,11.6-6.4l0,0l212.7-204.7l0,0c5.6-5.4,6.9-12.1,4.3-17.7
			c-1.5-2.9-3.8-5.3-6.6-6.8l-100-57.8c-2.6-1.5-5.4-2.4-8.4-2.8c-0.7-0.1-1.4-0.2-2-0.2s-1.5-0.1-2.3-0.1s-1.5,0-2.2,0.1
			c-0.4,0-0.8,0.1-1.2,0.1h-0.4c-3.9,0.5-7.6,1.8-11,3.7c-0.8,0.4-1.5,0.9-2.2,1.5c-0.4,0.3-0.8,0.6-1.1,0.9l-0.3,0.3
			c-1,0.9-1.9,1.9-2.8,2.8c-1.3,1.2-2.5,2.4-3.8,3.7c-0.2,0.2-0.4,0.4-0.6,0.6l-2,1.9l-2.3,2.2l-2.5,2.4c-0.9,0.9-1.8,1.8-2.7,2.6
			l-3.1,2.9l-3.2,3l-3.4,3.2L190,235l-3.7,3.6l-3.9,3.7l-4,3.9l-4.2,4l-4.3,4.2c-1.5,1.4-3,2.8-4.4,4.3l-4.6,4.4l-4.6,4.5l-4.8,4.6
			c-1.6,1.5-3.2,3.1-4.8,4.6l-4.9,4.7l-5,4.8l-5,4.8l-5.1,4.9l-5.1,4.9l-5.1,4.9l-5.1,4.9l-5.1,4.9c-1.7,1.6-3.4,3.3-5.1,4.9
			l-5.1,4.9l-5,4.9l-5,4.8l-4.9,4.8l-4.9,4.7l-4.8,4.6l-4.7,4.5l-4.6,4.4l-4.5,4.3l-4.4,4.2l-4.3,4.1l-4.1,4l-4,3.8l-3.8,3.7
			c-1.2,1.2-2.4,2.3-3.6,3.5l-3.5,3.3l-3.3,3.2l-3.1,3l-2.9,2.8l-2.6,2.5l-2.4,2.3l-2.2,2.1l-1.9,1.8l-1.7,1.5l-1.4,1.3l-1.1,1
			l-0.8,0.8l-0.5,0.5l-0.2,0.2c-2.6,2.3-4.4,5.4-5.3,8.8C0.7,421.6,0.6,422.7,0.6,423.8z M1,423.8c0-1,0.1-2.1,0.3-3.1
			c0.8-3.3,2.6-6.3,5.1-8.5l0.1-0.1l0.1-0.1l0.4-0.3l0.1-0.1l0.4-0.4l0.4-0.4l1.1-1l0.4-0.4l0.9-0.9l0.8-0.8l0.8-0.8l0.1-0.1L14,405
			l2.2-2.1l1.2-1.1l1.2-1.2l2.6-2.6l2.9-2.7l3.1-3l1.6-1.6l1.6-1.6l2.3-2.2l1.1-1.1l1.8-1.7l1.8-1.8l3.8-3.7l4-3.8l4.1-4l4.3-4.1
			l1.5-1.4l2.9-2.8l2.3-2.2l2.3-2.2l2.3-2.2l2.3-2.2l2.4-2.3l2.3-2.2l4.8-4.6l1.6-1.5l3.3-3.1l4.9-4.8l5-4.8l2.5-2.3l2.5-2.4l2-2
			l3-2.9l5.1-4.9l5.1-4.9l5-4.8l0.1-0.1l5.2-5l2.5-2.5l2.5-2.4l5.1-4.9l3.3-3.2l1.7-1.6l5-4.8l2.4-2.4l2.4-2.3l4.8-4.6l1.6-1.5
			l3.1-3l0.2-0.2l4.5-4.3l4.6-4.4l4.4-4.3l4.3-4.2l2.1-2l2.1-2l0.1-0.1l3.9-3.7l3.9-3.7l2.5-2.4l1.2-1.2l3.4-3.3l0.1-0.1l1.7-1.6
			l1.7-1.6l3.2-3l2.8-2.7l0.1-0.1l1.4-1.3l1.3-1.3l0.1-0.1l2.4-2.3l2.2-2.1l0,0l2-1.9c1.4-1.4,3-2.9,4.4-4.3l1.3-1.3
			c0.9-1,1.9-1.9,2.9-2.7c0.7-0.5,1.4-1,2.2-1.4c4.5-2.6,9.5-4,14.7-4c0.8,0,1.5,0,2.2,0.1c3.6,0.2,7.1,1.2,10.2,2.9l100,57.7
			c2.7,1.5,5,3.8,6.4,6.6c2.6,5.5,1,12.1-4.2,17.1L140.3,489.2c-5.3,4.8-12.3,7.5-19.5,7.4c-2.9,0-5.8-0.5-8.6-1.4
			c-1.2-0.4-2.4-1-3.5-1.6l-100-57.7c-1.1-0.6-2.2-1.4-3.1-2.3C2.7,431.1,1.1,427.5,1,423.8z"/>
		<g>
			<path class="st3" d="M0.6,423.8c0,3.9,1.7,7.6,4.7,10.1c1,0.9,2.1,1.7,3.2,2.4l100,57.7c1.1,0.7,2.3,1.2,3.6,1.7
				c1.6,0.6,3.2,0.9,4.9,1.2l0.7,0.1c0.3,0,0.6,0.1,0.8,0.1c0.8,0.1,1.6,0.1,2.4,0.1c1.4,0,2.7-0.1,4.1-0.3l0.7-0.1l0.7-0.1
				c0.8-0.2,1.7-0.4,2.6-0.6l0.2,0c4.3-1.2,8.3-3.4,11.6-6.4l212.7-204.6c5.6-5.4,6.9-12.1,4.3-17.7c-1.5-2.9-3.8-5.3-6.6-6.8
				l-100-57.7c-2.6-1.5-5.4-2.4-8.4-2.8c-0.7-0.1-1.4-0.2-2.1-0.2s-1.5-0.1-2.3-0.1s-1.5,0-2.2,0.1c-0.4,0-0.8,0.1-1.2,0.1h-0.4
				c-3.9,0.5-7.6,1.8-11,3.7c-0.8,0.4-1.5,0.9-2.2,1.4l0,0l0,0c-0.2,0.1-0.4,0.3-0.5,0.4l-0.6,0.5l-0.3,0.3c-0.3,0.3-0.6,0.7-0.9,1
				l-5.7,5.5L6.2,411.8c-2.6,2.3-4.4,5.4-5.3,8.8C0.7,421.6,0.6,422.7,0.6,423.8z M112.1,490.3l-100-57.7c-4.4-2.6-6.5-6.7-5.8-11
				c0.2-1.1,0.5-2.3,1-3.3c0.7-1.5,1.8-2.9,3-4.1l212.6-204.6c6.2-5.9,17.1-7.4,24.3-3.3l100,57.8c7.1,4.1,7.9,12.4,1.7,18.3
				L136.3,487C130.1,492.9,119.2,494.4,112.1,490.3z"/>
		</g>
		<g>
			<path class="st3" d="M0.6,423.8c0,3.9,1.7,7.6,4.7,10.1c1,0.9,2.1,1.7,3.2,2.4l100,57.7c1.1,0.7,2.3,1.2,3.6,1.7
				c1.6,0.6,3.2,0.9,4.9,1.2l0.7,0.1c0.3,0,0.6,0.1,0.8,0.1c0.8,0.1,1.6,0.1,2.4,0.1c1.4,0,2.7-0.1,4.1-0.3l0.7-0.1l0.7-0.1
				c0.8-0.2,1.7-0.4,2.6-0.6l0.2,0c4.3-1.2,8.3-3.4,11.6-6.4l212.7-204.6c5.6-5.4,6.9-12.1,4.3-17.7c-1.5-2.9-3.8-5.3-6.6-6.8
				l-100-57.7c-2.6-1.5-5.4-2.4-8.4-2.8c-0.7-0.1-1.4-0.2-2.1-0.2s-1.5-0.1-2.3-0.1s-1.5,0-2.2,0.1c-0.4,0-0.8,0.1-1.2,0.1h-0.4
				c-3.9,0.5-7.6,1.8-11,3.7c-0.8,0.4-1.5,0.9-2.2,1.4l0,0l0,0c-0.2,0.1-0.4,0.3-0.5,0.4l-0.6,0.5l-0.3,0.3c-0.3,0.3-0.6,0.7-0.9,1
				l-5.7,5.5L6.2,411.8c-2.6,2.3-4.4,5.4-5.3,8.8C0.7,421.6,0.6,422.7,0.6,423.8z M112.1,490.3l-100-57.7c-4.4-2.6-6.5-6.7-5.8-11
				c0.2-1.1,0.5-2.3,1-3.3c0.7-1.5,1.8-2.9,3-4.1l212.6-204.6c6.2-5.9,17.1-7.4,24.3-3.3l100,57.8c7.1,4.1,7.9,12.4,1.7,18.3
				L136.3,487C130.1,492.9,119.2,494.4,112.1,490.3z"/>
		</g>
		<path class="st4" d="M48,391.9l4.3-4.2l48.5-46.6l85.3-82.1l4.3-4.2c4.4-4.2,12.1-5.3,17.2-2.4L281,295l15,8.7
			c5.1,2.9,5.6,8.8,1.2,13l-4.3,4.1L159.2,449.5l-4.3,4.2c-4.4,4.2-12.1,5.3-17.2,2.4l-88.5-51.1C44.1,402,43.5,396.2,48,391.9z"/>
		<path class="st5" d="M77.7,378.1c-0.9-0.5-2-0.3-2.7,0.4l-17,16.4c-0.5,0.4-0.6,1.2-0.2,1.7c0.1,0.1,0.2,0.3,0.4,0.3l88,50.8
			c0.9,0.5,2,0.3,2.7-0.4l17-16.4c0.5-0.4,0.6-1.2,0.2-1.7c-0.1-0.1-0.2-0.3-0.4-0.3L77.7,378.1"/>
		<g>
			<g>
				<defs>
					<polygon id="SVGID_1_" points="86.4,370.3 201.1,259.9 288.6,310.4 173.9,420.8 					"/>
				</defs>
				<clipPath id="SVGID_2_">
					<use xlink:href="#SVGID_1_"  style="overflow:visible;"/>
				</clipPath>
				<g class="st6">
					<path d="M199.8,275.6l-0.4-0.3l-2.9,2.8c-0.4,0.5-1.2,0.6-1.7,0.2c-0.6-0.4-0.7-0.8-0.2-1.2c0.2-0.2,0.5-0.4,0.8-0.5l-0.3-0.3
						c-0.4,0.2-0.7,0.4-1,0.6c-0.6,0.6-0.5,1.3,0.3,1.8c0.8,0.5,1.8,0.4,2.5-0.2L199.8,275.6"/>
					<path d="M201,276.2l-0.4-0.3l-2.6,2.4c-0.5,0.5-0.5,0.9,0.3,1.4l0.4-0.4c-0.4-0.2-0.5-0.5-0.2-0.8L201,276.2"/>
					<path d="M204,280.3l-0.4-0.3l-0.9,0.9c-0.4,0.4-0.7,0.5-1,0.3s-0.4-0.4-0.1-0.6l0.8-0.8l-0.4-0.3l-0.6,0.6
						c-0.4,0.4-0.7,0.4-1,0.2s-0.4-0.3-0.1-0.6l0.8-0.8l-0.4-0.3l-0.6,0.6c-0.4,0.4-0.7,0.4-1,0.2l-0.1,0l-0.4,0.4h0.1
						c0.3,0.2,0.7,0.3,1,0.2c0,0.3,0.2,0.5,0.4,0.6c0.3,0.2,0.7,0.3,1,0.2c0,0.3,0.2,0.5,0.4,0.6c0.5,0.3,1.2,0.2,1.7-0.2L204,280.3
						 M202.7,278.5c-0.2-0.1-0.4,0-0.5,0.1c-0.1,0.1-0.1,0.2-0.1,0.3c0,0,0,0,0.1,0.1c0.2,0.1,0.4,0.1,0.5-0.1
						C202.8,278.8,202.8,278.7,202.7,278.5C202.7,278.5,202.7,278.5,202.7,278.5 M203.4,278.9c-0.2-0.1-0.4-0.1-0.5,0.1
						c-0.1,0.1-0.1,0.2-0.1,0.3c0,0,0,0.1,0.1,0.1c0.2,0.1,0.4,0.1,0.5-0.1C203.5,279.2,203.5,279.1,203.4,278.9
						C203.5,278.9,203.4,278.9,203.4,278.9 M203.6,278.2c-0.2-0.1-0.4-0.1-0.5,0.1c-0.1,0.1-0.1,0.3,0,0.4c0.2,0.1,0.4,0.1,0.5-0.1
						C203.7,278.5,203.7,278.4,203.6,278.2C203.6,278.2,203.6,278.2,203.6,278.2"/>
					<path d="M205.1,282.9c-0.2-0.1-0.4-0.1-0.6,0.1c-0.1,0.1-0.2,0.3-0.1,0.4c0,0,0,0.1,0.1,0.1c0.2,0.1,0.5,0.1,0.6-0.1
						C205.2,283.3,205.2,283.1,205.1,282.9C205.1,282.9,205.1,282.9,205.1,282.9 M206.6,281.4c-0.2-0.1-0.5-0.1-0.6,0.1
						c-0.1,0.1-0.2,0.3-0.1,0.4c0,0,0,0.1,0.1,0.1c0.2,0.1,0.5,0.1,0.6-0.1C206.7,281.8,206.8,281.6,206.6,281.4
						C206.7,281.4,206.7,281.4,206.6,281.4"/>
					<path d="M207.1,284.7c0-0.3,0.1-0.5,0.3-0.7c0.3-0.3,0.8-0.4,1.2-0.2c0.4,0.2,0.4,0.5,0,0.9c-0.3,0.4-0.9,0.5-1.3,0.2
						L207.1,284.7 M209.1,283.5c-0.7-0.4-1.5-0.3-2.1,0.3c-0.1,0.1-0.2,0.2-0.3,0.4l-0.1-0.1c-0.5-0.3-1.2-0.2-1.6,0.2l-0.8,0.8
						l0.4,0.3l0.8-0.7c0.2-0.2,0.5-0.3,0.8-0.1l0.3,0.2c0,0.1,0,0.3,0,0.4l0.3,0.2c0.3,0.2,0.8,0.3,1.2,0.3l0.7,0.4l0.4-0.4
						l-0.4-0.3c0.1-0.1,0.3-0.2,0.4-0.3C209.6,284.5,209.7,283.9,209.1,283.5"/>
					<path d="M209.4,286.8c-0.2-0.1-0.4-0.1-0.5,0.1c-0.1,0.1-0.1,0.2-0.1,0.3c0,0,0,0.1,0.1,0.1c0.2,0.1,0.4,0,0.5-0.1
						C209.5,287.1,209.5,286.9,209.4,286.8 M211.5,284.6c-0.2-0.1-0.5-0.2-0.8-0.3l-0.2,0.4c0.2,0,0.4,0.1,0.6,0.2
						c1,0.5,0.3,1.3-0.2,1.6l-1.7-1l-0.4,0.4l2.1,1.2C212.2,286.2,212.6,285.2,211.5,284.6"/>
					<path d="M214.2,286.2l-0.4-0.3l-1.6,1.5c-0.3,0.4-0.9,0.5-1.4,0.2l-0.3,0.4c0.6,0.3,1.3,0.2,1.8-0.1l0.7,0.4l0.4-0.4l-0.6-0.4
						L214.2,286.2"/>
					<path d="M215.9,287.2l-0.4-0.3l-0.9,0.9c-0.4,0.4-0.7,0.5-1.1,0.2h-0.1l-0.4,0.4l0,0c0.6,0.4,1.4,0.3,1.9-0.3L215.9,287.2
						 M216.2,285.9c-0.2-0.1-0.4-0.1-0.5,0.1c-0.1,0.1-0.1,0.3,0,0.4c0.2,0.1,0.4,0.1,0.5-0.1C216.3,286.2,216.3,286,216.2,285.9
						C216.3,285.9,216.2,285.9,216.2,285.9 M216.9,286.3c-0.2-0.1-0.4-0.1-0.5,0.1c-0.1,0.1-0.1,0.2-0.1,0.3c0,0,0,0.1,0.1,0.1
						c0.2,0.1,0.4,0.1,0.5-0.1C217.1,286.6,217.1,286.4,216.9,286.3"/>
					<polyline class="st7" points="180.6,291.1 177.9,289.6 177.5,289.9 178.6,290.6 176,293.1 176.5,293.4 179.1,290.9 
						180.2,291.5 180.6,291.1 					"/>
					<path class="st7" d="M181.5,293.2l-0.5-0.3l-2.2,1.2l0,0l0.9-1.9l-0.5-0.3l-1.1,2.5l-0.4,0.2c-0.3,0.1-0.5,0.2-0.8,0
						c-0.1-0.1-0.2-0.1-0.2-0.2l-0.4,0.3c0.1,0.1,0.2,0.2,0.3,0.3c0.5,0.2,1,0.2,1.4-0.1L181.5,293.2"/>
					<path class="st7" d="M181.4,295.8c-0.5-0.3-0.5-0.7-0.1-1.1c0.4-0.4,1-0.5,1.5-0.2c0.5,0.3,0.5,0.7,0.1,1.1
						C182.5,296,181.9,296,181.4,295.8 M183.3,294.1c-0.4-0.2-0.8-0.3-1.2-0.1l0,0l0.3-0.3l-0.4-0.3l-3.2,3.1l0.4,0.3l1.5-1.5l0,0
						c0,0.3,0.1,0.7,0.5,0.8c0.7,0.4,1.7,0.3,2.3-0.3c0.5-0.3,0.6-0.9,0.3-1.4C183.5,294.3,183.4,294.2,183.3,294.1"/>
					<path class="st7" d="M184.5,296.2c0.4-0.3,0.9-0.4,1.3-0.1c0.4,0.2,0.4,0.6,0.1,1L184.5,296.2 M186.1,295.8
						c-0.8-0.4-1.7-0.2-2.3,0.3c-0.5,0.3-0.6,0.9-0.3,1.4c0.1,0.1,0.2,0.3,0.4,0.3c0.4,0.3,1,0.3,1.5,0.2l-0.1-0.4
						c-0.3,0.1-0.6,0.1-0.9-0.1c-0.3-0.1-0.5-0.5-0.3-0.8c0-0.1,0.1-0.1,0.1-0.2l1.9,1.1l0.1-0.1
						C186.8,296.8,186.8,296.2,186.1,295.8"/>
					<path class="st7" d="M189.6,297.8l-0.4-0.3l-2,2l0.4,0.3L189.6,297.8 M190.4,296.8c-0.2-0.1-0.4-0.1-0.6,0.1
						c-0.1,0.1-0.2,0.3-0.1,0.4c0,0,0,0.1,0.1,0.1c0.2,0.1,0.4,0.1,0.6-0.1C190.5,297.1,190.5,297,190.4,296.8
						C190.4,296.8,190.4,296.8,190.4,296.8"/>
					<path class="st7" d="M191.6,298.9c-0.3-0.2-0.8-0.2-1.1-0.1l0,0l0.3-0.3l-0.4-0.3l-2,2l0.4,0.3l1.1-1c0.3-0.4,0.9-0.5,1.3-0.3
						c0.3,0.2,0.3,0.5,0,0.8l-1.2,1.2l0.4,0.3l1.3-1.3C192.1,299.7,192.1,299.2,191.6,298.9"/>
					<polyline class="st7" points="197.7,301 195.5,299.7 192.5,302.6 193,302.9 194.3,301.7 195.9,302.6 196.3,302.2 194.7,301.3 
						195.6,300.4 197.3,301.4 197.7,301 					"/>
					<path class="st7" d="M198.5,302.9c-0.3-0.2-0.7-0.2-1.1-0.1l0,0l0.3-0.3l-0.4-0.3l-2,2l0.4,0.3l1-1c0.3-0.4,0.9-0.5,1.3-0.2
						c0.1,0,0.1,0.1,0.2,0.2l0.4-0.4C198.6,303,198.5,302.9,198.5,302.9"/>
					<path class="st7" d="M198.5,304.3c0.4-0.3,0.9-0.4,1.3-0.1c0.4,0.2,0.4,0.6,0.1,1L198.5,304.3 M200.1,303.9
						c-0.8-0.4-1.7-0.3-2.3,0.3c-0.5,0.3-0.6,0.9-0.2,1.4c0.1,0.1,0.2,0.3,0.4,0.3c0.4,0.3,1,0.3,1.4,0.2l-0.1-0.4
						c-0.3,0.1-0.7,0.1-1-0.1c-0.3-0.1-0.5-0.5-0.3-0.8c0-0.1,0.1-0.1,0.1-0.2l1.9,1.1l0.1-0.1C200.8,304.9,200.8,304.3,200.1,303.9
						"/>
					<path class="st7" d="M203,305.5c-0.3-0.2-0.8-0.2-1.1-0.1l0,0l0.3-0.3l-0.4-0.3l-2,2l0.4,0.3l1.1-1c0.3-0.4,0.9-0.5,1.3-0.3
						c0.3,0.2,0.3,0.5,0,0.8l-1.2,1.2l0.4,0.3l1.3-1.3C203.5,306.4,203.5,305.9,203,305.5"/>
					<path class="st7" d="M205.7,307.1c-0.8-0.4-1.7-0.3-2.3,0.3c-0.4,0.3-0.5,0.9-0.2,1.4c0.1,0.1,0.2,0.3,0.4,0.3
						c0.4,0.2,0.8,0.3,1.2,0.2v-0.4c-0.3,0.1-0.6,0-0.8-0.1c-0.4-0.3-0.5-0.7-0.1-1.1c0.4-0.4,1-0.5,1.4-0.3
						c0.2,0.1,0.3,0.3,0.4,0.6l0.6-0.1C206.2,307.5,206,307.2,205.7,307.1"/>
					<path class="st7" d="M208.5,306.9l-0.4-0.3l-3.2,3.1l0.4,0.3l1.1-1c0.3-0.4,0.9-0.5,1.3-0.3c0.3,0.2,0.3,0.5,0,0.8l-1.2,1.2
						l0.4,0.3l1.3-1.3c0.5-0.4,0.4-0.9-0.1-1.2c-0.3-0.2-0.8-0.2-1.1-0.1l0,0L208.5,306.9"/>
					<polyline class="st7" points="211.2,311.6 210,310.9 209.7,311.2 210.9,311.9 211.2,311.6 					"/>
					<polyline class="st7" points="217.3,312.3 215.1,311 212,313.9 212.5,314.2 213.8,312.9 215.4,313.9 215.8,313.5 214.2,312.6 
						215.1,311.7 216.9,312.7 217.3,312.3 					"/>
					<path class="st7" d="M218,314.2c-0.3-0.2-0.7-0.2-1-0.1l0,0l0.3-0.3l-0.4-0.3l-2,2l0.4,0.3l1-1c0.3-0.4,0.9-0.5,1.3-0.2
						c0.1,0,0.1,0.1,0.2,0.1l0.4-0.4C218.2,314.3,218.1,314.2,218,314.2"/>
					<path class="st7" d="M217.7,316.8c-0.4-0.2-0.4-0.4-0.2-0.6s0.6-0.3,1.3,0.1l0.3,0.1l-0.1,0.1C218.6,317,218.1,317,217.7,316.8
						 M219.6,315.1c-0.4-0.2-0.8-0.3-1.2-0.3v0.4c0.3,0,0.6,0,0.9,0.2c0.3,0.2,0.4,0.5,0.1,0.8l-0.1,0.1L219,316
						c-0.9-0.5-1.6-0.5-2-0.1s-0.3,0.8,0.2,1c0.4,0.2,0.8,0.3,1.2,0.1l0,0c-0.1,0.1-0.2,0.2-0.3,0.3l0.4,0.2
						c0.1-0.1,0.3-0.3,0.3-0.3l1.1-1C220.2,316,220.3,315.5,219.6,315.1"/>
					<path class="st7" d="M222.5,316.7c-0.3-0.2-0.8-0.2-1.1-0.1l0,0l0.3-0.3l-0.4-0.3l-2,2l0.4,0.3l1.1-1c0.3-0.4,0.9-0.5,1.3-0.3
						c0.3,0.2,0.3,0.5,0,0.8l-1.2,1.2l0.4,0.3l1.3-1.3C223,317.5,223,317.1,222.5,316.7"/>
					<path class="st7" d="M225.1,318.3c-0.8-0.4-1.7-0.3-2.3,0.3c-0.4,0.3-0.5,1-0.2,1.4c0.1,0.1,0.1,0.1,0.2,0.2l-0.6,0.2v0.1
						c0.1,0,0.2,0.1,0.3,0.1c0.1,0.1,0.2,0.2,0.1,0.3c-0.1,0.1-0.3,0.1-0.5,0c-0.1-0.1-0.2-0.2-0.3-0.3l-0.3,0.1
						c0.1,0.2,0.2,0.3,0.4,0.4c0.3,0.2,0.7,0.2,1,0c0.2-0.2,0.2-0.4-0.2-0.6l-0.1-0.1l0.4-0.1c0.4,0.2,0.8,0.3,1.2,0.2v-0.4
						c-0.3,0.1-0.6,0-0.8-0.1c-0.3-0.2-0.4-0.5-0.3-0.9c0-0.1,0.1-0.2,0.2-0.2c0.4-0.4,1-0.5,1.4-0.3c0.2,0.1,0.3,0.3,0.4,0.6
						l0.6-0.1C225.7,318.8,225.4,318.5,225.1,318.3"/>
					<path class="st7" d="M225.4,321.2c-0.3-0.2-0.4-0.4-0.2-0.6s0.6-0.3,1.3,0.1l0.3,0.1l-0.1,0.1
						C226.3,321.4,225.8,321.5,225.4,321.2 M227.3,319.5c-0.4-0.2-0.8-0.3-1.2-0.3v0.4c0.3,0,0.6,0,0.9,0.2c0.2,0.1,0.3,0.3,0.3,0.5
						c0,0.1-0.1,0.2-0.1,0.2l-0.1,0.1l-0.3-0.2c-0.9-0.5-1.6-0.5-2-0.1s-0.3,0.8,0.2,1.1c0.4,0.2,0.8,0.3,1.2,0.1l0,0l-0.3,0.3
						l0.4,0.2c0.1-0.1,0.3-0.3,0.3-0.3l1.1-1C227.9,320.5,228,320,227.3,319.5"/>
					<path class="st7" d="M229.4,320.8l-0.4-0.3l-2,2l0.4,0.3L229.4,320.8 M230.2,319.7c-0.2-0.1-0.4-0.1-0.6,0.1
						c-0.1,0.1-0.2,0.2-0.1,0.4c0,0,0.1,0.1,0.1,0.1c0.2,0.1,0.4,0.1,0.6-0.1C230.3,320.1,230.3,319.9,230.2,319.7
						C230.2,319.8,230.2,319.7,230.2,319.7"/>
					<path class="st7" d="M231,321.6c-0.5-0.3-1.1-0.3-1.5,0.1c-0.4,0.4-0.2,0.6,0.2,1.1c0.2,0.2,0.3,0.4,0.1,0.5
						c-0.4,0.2-0.8,0-0.9-0.4c0-0.1,0-0.1-0.1-0.2h-0.6c0,0.4,0.1,0.6,0.5,0.9c0.5,0.3,1.1,0.3,1.6-0.1c0.4-0.4,0.3-0.7-0.2-1.1
						c-0.2-0.2-0.3-0.4-0.2-0.5c0.2-0.1,0.4-0.1,0.6,0c0.2,0.1,0.3,0.3,0.3,0.5h0.6C231.5,322,231.3,321.7,231,321.6"/>
					<path d="M202.1,260.7c-0.5-0.3-1.1-0.3-1.6-0.1l0.3,0.4c0.3-0.2,0.7-0.2,1,0c0.3,0.1,0.4,0.4,0.3,0.6c0,0.1-0.1,0.2-0.2,0.2
						c-0.4,0.4-1,0.4-1.4,0.1l-0.1-0.1l-0.3,0.3l0.1,0.1c0.6,0.4,0.7,0.8,0.3,1.1c-0.4,0.3-0.9,0.4-1.3,0.2
						c-0.4-0.2-0.5-0.5-0.3-0.9l-0.6-0.1c-0.2,0.4-0.1,1,0.4,1.2c0,0,0.1,0,0.1,0.1c0.7,0.4,1.5,0.3,2.1-0.2c0.3-0.2,0.4-0.7,0.2-1
						c0-0.1-0.1-0.1-0.1-0.1l0,0c0.5,0.1,1,0,1.3-0.3C202.8,261.6,202.7,261.1,202.1,260.7"/>
					<path d="M201.6,264.5c-0.2-0.1-0.4-0.1-0.6,0.1c-0.1,0.1-0.1,0.2-0.1,0.4c0,0,0,0.1,0.1,0.1c0.2,0.1,0.4,0.1,0.6-0.1
						C201.7,264.9,201.8,264.7,201.6,264.5C201.7,264.6,201.7,264.5,201.6,264.5"/>
					<polyline points="209.2,264.9 206.4,263.3 206.1,263.6 207.3,264.3 204.5,267 204.9,267.2 207.7,264.5 208.9,265.2 
						209.2,264.9 					"/>
					<path d="M209.4,266.5c-0.4-0.2-0.8-0.2-1.2-0.1l0,0l0.3-0.3l-0.4-0.2c-0.1,0.1-0.3,0.3-0.4,0.5l-1.6,1.5l0.4,0.2l1-1
						c0.3-0.4,1-0.6,1.4-0.3c0.1,0,0.1,0.1,0.2,0.1l0.4-0.3L209.4,266.5"/>
					<path d="M208.9,269.1c-0.3-0.2-0.4-0.4-0.2-0.6s0.7-0.2,1.2,0.1l0.4,0.3l-0.1,0.1C209.9,269.3,209.4,269.4,208.9,269.1
						 M210.9,267.4c-0.4-0.2-0.8-0.3-1.3-0.2v0.4c0.3,0,0.6,0,0.9,0.2c0.4,0.2,0.4,0.5,0.1,0.8l-0.1,0l-0.2-0.1
						c-1.1-0.6-1.7-0.6-2.2-0.1s-0.2,0.8,0.3,1.1c0.4,0.2,0.8,0.2,1.1,0.1l0,0c-0.1,0.1-0.2,0.2-0.3,0.3l0.4,0.2
						c0.1-0.1,0.2-0.2,0.3-0.3l0.9-0.9C211.6,268.2,211.6,267.8,210.9,267.4"/>
					<path d="M213.8,269.1c-0.4-0.2-0.8-0.2-1.2-0.1l0,0l0.3-0.3l-0.4-0.2c-0.1,0.1-0.3,0.3-0.4,0.5l-1.6,1.5l0.4,0.2l1-1
						c0.4-0.5,1-0.6,1.5-0.3c0.4,0.2,0.3,0.5,0,0.8l-1.3,1.2l0.4,0.2l1.3-1.2C214.4,269.9,214.4,269.4,213.8,269.1"/>
					<path d="M216.2,270.4c-0.5-0.3-1.1-0.3-1.5,0.1c-0.3,0.3-0.3,0.6,0.1,0.9s0.5,0.5,0.3,0.7c-0.2,0.2-0.6,0.2-0.8,0
						c-0.2-0.1-0.4-0.4-0.3-0.6h-0.5c-0.1,0.4,0.1,0.6,0.5,0.9c0.5,0.3,1.1,0.3,1.6-0.1c0.3-0.3,0.3-0.6-0.2-1
						c-0.3-0.3-0.4-0.5-0.3-0.6c0.2-0.2,0.5-0.2,0.8,0c0.2,0.1,0.3,0.3,0.3,0.5h0.5C216.7,271,216.5,270.7,216.2,270.4"/>
					<polyline points="219.2,270.3 218.9,270.1 215.5,273.3 215.9,273.5 219.2,270.3 					"/>
					<path d="M217.8,274.2c-0.3-0.2-0.4-0.4-0.2-0.6s0.7-0.2,1.2,0.1l0.4,0.3l-0.1,0.1C218.8,274.4,218.2,274.5,217.8,274.2
						 M219.8,272.5c-0.4-0.2-0.8-0.3-1.3-0.2v0.4c0.3,0,0.6,0,0.9,0.2c0.4,0.2,0.4,0.5,0.1,0.8l-0.1,0.1l-0.2-0.1
						c-1.1-0.6-1.7-0.6-2.2-0.1s-0.2,0.8,0.3,1.1c0.4,0.2,0.8,0.2,1.1,0.1l0,0c-0.1,0.1-0.2,0.2-0.3,0.3l0.4,0.2
						c0.1-0.1,0.2-0.3,0.3-0.4l0.9-0.9C220.5,273.3,220.4,272.9,219.8,272.5"/>
					<path d="M222.6,273.3l-0.4-0.2l-0.6,0.6l-0.5-0.3l-0.3,0.3l0.5,0.3l-1.2,1.1c-0.5,0.5-0.5,0.8,0,1c0.2,0.1,0.3,0.2,0.5,0.2
						l0.3-0.3c-0.1,0-0.3-0.1-0.4-0.1c-0.2-0.1-0.3-0.3,0-0.6l1.1-1.1l0.7,0.4l0.3-0.3l-0.7-0.4L222.6,273.3"/>
					<path d="M222.6,275.6c0.4-0.3,0.9-0.4,1.4-0.1c0.3,0.1,0.5,0.4,0.4,0.7c0,0.1-0.1,0.2-0.2,0.3L222.6,275.6 M224.3,275.2
						c-0.8-0.4-1.7-0.3-2.3,0.3c-0.5,0.3-0.6,0.9-0.3,1.4c0.1,0.2,0.2,0.3,0.4,0.4c0.4,0.3,1,0.3,1.5,0.2l-0.1-0.4
						c-0.4,0.1-0.7,0.1-1.1-0.1c-0.3-0.2-0.4-0.6-0.3-0.9c0-0.1,0.1-0.1,0.2-0.2l1.9,1.1l0.1-0.1
						C225.1,276.2,224.9,275.5,224.3,275.2"/>
					<path d="M228.6,276.8l-0.4-0.2l-0.6,0.6l-0.5-0.3l-0.3,0.3l0.5,0.3l-1.1,1.1c-0.5,0.5-0.5,0.8,0,1c0.2,0.1,0.3,0.2,0.5,0.2
						l0.3-0.3c-0.2,0-0.3-0.1-0.4-0.1c-0.2-0.1-0.3-0.3,0-0.6l1.1-1.1l0.7,0.4l0.3-0.3l-0.7-0.4L228.6,276.8"/>
					<path d="M230.9,277.1l-0.4-0.2l-3.3,3.2l0.4,0.2l1-1c0.4-0.4,1-0.6,1.5-0.3c0.4,0.2,0.3,0.5,0,0.8l-1.3,1.2l0.4,0.2l1.3-1.2
						c0.5-0.5,0.5-1-0.1-1.3c-0.3-0.2-0.7-0.2-1.1-0.1l0,0L230.9,277.1"/>
					<path d="M232.5,279.9l-0.4-0.2l-2.1,2l0.4,0.2L232.5,279.9 M233.3,278.8c-0.2-0.1-0.4-0.1-0.6,0.1c-0.1,0.1-0.1,0.2-0.1,0.3
						c0,0,0,0.1,0.1,0.1c0.2,0.1,0.4,0.1,0.5-0.1C233.4,279.1,233.5,279,233.3,278.8C233.4,278.8,233.4,278.8,233.3,278.8"/>
					<path d="M234,280.8c-0.5-0.3-1.1-0.3-1.5,0.1c-0.3,0.3-0.3,0.6,0.1,0.9s0.5,0.5,0.3,0.7c-0.3,0.2-0.6,0.2-0.8,0
						c-0.2-0.1-0.4-0.4-0.3-0.6h-0.5c0,0.4,0.1,0.6,0.5,0.9c0.5,0.3,1.1,0.3,1.6-0.1c0.3-0.3,0.3-0.6-0.2-1s-0.4-0.5-0.3-0.6
						c0.2-0.2,0.5-0.2,0.8,0c0.2,0.1,0.3,0.3,0.3,0.5h0.5C234.6,281.3,234.4,281,234,280.8"/>
					<path d="M239.1,282c-0.7-0.4-1.5-0.4-2.1,0.1c-0.4,0.4-0.4,0.8,0,1.3s0.8,0.8,0.3,1.2c-0.4,0.3-0.9,0.3-1.3,0.1
						c-0.3-0.1-0.5-0.5-0.4-0.8h-0.6c0,0.4,0.3,0.8,0.7,1c0.7,0.4,1.6,0.4,2.2-0.1c0.4-0.4,0.5-0.8-0.1-1.5c-0.4-0.5-0.5-0.7-0.2-1
						c0.4-0.3,0.9-0.3,1.3-0.1c0.3,0.1,0.4,0.4,0.4,0.6h0.6C239.7,282.5,239.5,282.1,239.1,282"/>
					<path d="M239.1,285.1c0.4-0.3,0.9-0.4,1.4-0.1c0.3,0.1,0.5,0.4,0.4,0.7c0,0.1-0.1,0.2-0.2,0.3L239.1,285.1 M240.8,284.7
						c-0.8-0.4-1.7-0.3-2.3,0.3c-0.5,0.3-0.6,0.9-0.3,1.4c0.1,0.2,0.2,0.3,0.4,0.4c0.4,0.3,1,0.3,1.5,0.2l-0.1-0.4
						c-0.4,0.1-0.7,0.1-1.1-0.1c-0.3-0.2-0.4-0.6-0.3-0.9c0-0.1,0.1-0.1,0.2-0.2l1.9,1.1l0.1-0.1
						C241.6,285.7,241.4,285.1,240.8,284.7"/>
					<path d="M243.7,286.3c-0.4-0.2-0.8-0.2-1.2-0.1l0,0l0.3-0.3l-0.4-0.2c-0.1,0.1-0.3,0.3-0.4,0.5l-1.6,1.5l0.4,0.2l1-1
						c0.4-0.5,1-0.6,1.5-0.3c0.4,0.2,0.3,0.5,0,0.8l-1.3,1.2l0.4,0.2l1.3-1.2C244.3,287.1,244.3,286.6,243.7,286.3"/>
					<path d="M246.5,287.1l-0.4-0.2l-0.6,0.6l-0.5-0.3l-0.3,0.3l0.5,0.3l-1.1,1.1c-0.5,0.5-0.5,0.8,0,1c0.2,0.1,0.4,0.2,0.5,0.2
						l0.3-0.3c-0.1,0-0.3-0.1-0.4-0.1c-0.2-0.1-0.3-0.3,0-0.6l1.1-1.1l0.7,0.4l0.3-0.3l-0.7-0.4L246.5,287.1"/>
					<path d="M246.5,289.4c0.4-0.3,0.9-0.4,1.4-0.1c0.3,0.1,0.5,0.4,0.4,0.7c0,0.1-0.1,0.2-0.2,0.3L246.5,289.4 M248.2,289
						c-0.8-0.4-1.7-0.3-2.3,0.3c-0.6,0.6-0.6,1.3,0.1,1.7c0.4,0.3,1,0.3,1.5,0.2l-0.1-0.4c-0.4,0.1-0.7,0.1-1.1-0.1
						c-0.3-0.2-0.4-0.6-0.3-0.9c0-0.1,0.1-0.1,0.2-0.2l1.9,1.1l0.1-0.1C249,290,248.8,289.3,248.2,289"/>
					<path d="M251.1,290.6c-0.4-0.2-0.8-0.2-1.2-0.1l0,0l0.3-0.3l-0.4-0.2l-0.4,0.5l-1.6,1.5l0.4,0.2l1-1c0.4-0.5,1-0.6,1.5-0.3
						c0.4,0.2,0.3,0.5,0,0.8l-1.3,1.2l0.4,0.2l1.3-1.2C251.7,291.5,251.7,290.9,251.1,290.6"/>
					<path d="M253.9,292.2c-0.8-0.4-1.7-0.3-2.3,0.3c-0.5,0.3-0.6,0.9-0.3,1.4c0.1,0.2,0.3,0.3,0.4,0.4c0.4,0.2,0.8,0.3,1.2,0.2
						v-0.4c-0.3,0.1-0.6,0.1-0.9-0.1c-0.5-0.3-0.5-0.8,0-1.2c0.4-0.4,1-0.5,1.6-0.3c0.2,0.1,0.4,0.3,0.4,0.6h0.6
						C254.5,292.7,254.3,292.4,253.9,292.2"/>
					<path d="M254.6,294.1c0.4-0.3,0.9-0.4,1.3-0.1c0.3,0.1,0.5,0.4,0.4,0.7c0,0.1-0.1,0.2-0.2,0.3L254.6,294.1 M256.3,293.7
						c-0.8-0.4-1.7-0.3-2.3,0.3c-0.5,0.3-0.6,0.9-0.3,1.4c0.1,0.2,0.2,0.3,0.4,0.4c0.4,0.3,1,0.3,1.5,0.2l-0.1-0.4
						c-0.4,0.1-0.7,0-1.1-0.1c-0.3-0.2-0.4-0.6-0.3-0.9c0-0.1,0.1-0.1,0.2-0.2l1.9,1.1l0.1-0.1C257.1,294.7,256.9,294.1,256.3,293.7
						"/>
					<path class="st7" d="M89.7,371.2c-0.8-0.4-1.1-1.3-0.7-2.1c0.1-0.2,0.2-0.4,0.4-0.5l87.9-84.6c0.9-0.9,2.3-1.1,3.5-0.5
						l82.2,47.5c0.8,0.4,1.1,1.3,0.7,2.1c-0.1,0.2-0.2,0.4-0.4,0.5l-87.9,84.6c-0.9,0.9-2.3,1.1-3.5,0.5L89.7,371.2 M263.7,330.3
						l-82.2-47.5c-1.6-0.8-3.5-0.6-4.9,0.7l-87.9,84.6c-1,0.7-1.1,2.1-0.4,3.1c0.2,0.3,0.4,0.5,0.7,0.6l82.2,47.5
						c1.6,0.8,3.5,0.5,4.9-0.7l87.9-84.6c1-0.7,1.1-2.1,0.4-3.1C264.3,330.7,264,330.5,263.7,330.3"/>
				</g>
			</g>
		</g>
	</g>
	<g>
		<path class="st8" d="M5,336.6l-0.1-0.1L5,336.6L5,336.6z M1.3,332.7L1.3,332.7L1.3,332.7L1.3,332.7z M0.8,331.7L0.8,331.7
			c0,0.1,0.1,0.1,0.1,0.1L0.8,331.7z M0.4,330.7C0.4,330.7,0.4,330.7,0.4,330.7C0.4,330.6,0.4,330.7,0.4,330.7L0.4,330.7z
			 M0.2,329.7c0,0,0-0.1,0-0.1l0.7,3.4c0.1,0.4,0.2,0.8,0.3,1.2l0,0c0.1,0.3,0.2,0.7,0.4,1c0,0.1,0.1,0.2,0.1,0.3
			c0.1,0.3,0.3,0.5,0.4,0.7c0.1,0.1,0.1,0.2,0.2,0.4c0.1,0.2,0.3,0.4,0.4,0.6l0.3,0.4c0.1,0.1,0.1,0.2,0.2,0.3s0.2,0.2,0.3,0.3
			l0.3,0.4c0.2,0.2,0.4,0.4,0.5,0.5c0.2,0.2,0.2,0.2,0.4,0.3s0.4,0.4,0.7,0.5c0.2,0.2,0.2,0.2,0.3,0.3c0.4,0.3,0.7,0.5,1.1,0.7
			l104,60c0.4,0.2,0.8,0.5,1.3,0.6c0.1,0.1,0.2,0.1,0.3,0.2c0.4,0.2,0.8,0.4,1.3,0.5h0.1l0,0l0.6,0.2l0.4,0.1c0.1,0,0.2,0.1,0.3,0.1
			l0.5,0.1c0.3,0.1,0.7,0.2,1.1,0.2l0.4,0.1c0.5,0.1,1,0.1,1.5,0.2h0.1c0.4,0,0.8,0,1.2,0.1h0.2c0.6,0,1.2,0,1.8,0h0.1
			c0.6,0,1.3-0.1,1.9-0.2h0.2l0.4-0.1c0.2,0,0.5-0.1,0.7-0.1s0.5-0.1,0.7-0.1s0.4-0.1,0.7-0.2l0.2-0.1c0.4-0.1,0.8-0.2,1.2-0.4
			c0.1,0,0.3-0.1,0.4-0.1c0.1,0,0.1,0,0.2-0.1c0.6-0.2,1.3-0.5,1.9-0.8c0.1,0,0.2-0.1,0.3-0.1c0.5-0.2,1-0.5,1.5-0.8
			c0.1-0.1,0.2-0.1,0.3-0.2l0.3-0.2c0.4-0.3,0.8-0.5,1.2-0.8l0.5-0.4c0.5-0.4,1-0.8,1.5-1.3l221-212.7c2-1.9,3.4-4.2,4-6.9
			c0.3-1.4,0.3-2.9,0.1-4.3l-0.7-3.4c0,0.1,0,0.3,0,0.4c-0.6-3.5-2.8-6.6-6-8.3l-104-60c-7.4-4.3-18.8-2.7-25.2,3.5L98.7,227.4
			l-0.1,0.1L4.3,318.2c-1.3,1.2-2.4,2.6-3.1,4.2c-0.5,1.1-0.9,2.3-1.1,3.5C-0.1,327.1-0.1,328.4,0.2,329.7L0.2,329.7z"/>
		<g class="st9">
			<path class="st4" d="M0.5,330.6c0.1,0.3,0.2,0.7,0.4,1c0,0.1,0.1,0.2,0.1,0.3c0.1,0.3,0.2,0.5,0.4,0.7l0.2,0.4
				c0.1,0.2,0.3,0.4,0.4,0.6l0.3,0.4c0.2,0.2,0.3,0.4,0.5,0.6s0.2,0.3,0.3,0.4s0.4,0.4,0.5,0.5l0.4,0.3c0.2,0.2,0.4,0.4,0.7,0.5
				s0.2,0.2,0.3,0.3c0.4,0.3,0.7,0.5,1.1,0.7l104,60c0.4,0.2,0.8,0.5,1.3,0.7l0.3,0.1c0.4,0.2,0.8,0.4,1.3,0.5h0.1
				c0.4,0.2,0.9,0.3,1.4,0.4l0.5,0.1c0.4,0.1,0.7,0.2,1.1,0.2l0.4,0.1c0.5,0.1,1,0.1,1.5,0.2h0c0.5,0,0.9,0,1.4,0.1
				c0.6,0,1.2,0,1.8,0h0.2c0.6,0,1.3-0.1,1.9-0.2l0.6-0.1c0.5-0.1,1-0.2,1.5-0.3l0.7-0.2c0.5-0.1,0.9-0.3,1.4-0.4
				c0.2-0.1,0.4-0.1,0.6-0.2c0.6-0.2,1.3-0.5,1.9-0.8l0.3-0.1c0.5-0.2,1-0.5,1.5-0.8l0.5-0.3c0.4-0.3,0.8-0.5,1.2-0.8l0.5-0.4
				c0.5-0.4,1-0.8,1.5-1.3l221-212.6c3.5-3.4,4.9-7.5,4.1-11.2l0.6,3.4c0.7,3.7-0.6,7.8-4.1,11.2L136,397.3c-0.5,0.5-1,0.9-1.5,1.3
				l-0.5,0.4c-0.4,0.3-0.8,0.5-1.2,0.8l-0.5,0.3c-0.5,0.3-1,0.5-1.5,0.8c-0.1,0-0.2,0.1-0.3,0.1c-0.6,0.3-1.3,0.5-1.9,0.8l-0.1,0.1
				c-0.1,0-0.3,0.1-0.4,0.1c-0.5,0.1-0.9,0.3-1.4,0.4l-0.7,0.2c-0.5,0.1-1,0.2-1.5,0.3l-0.4,0.1h-0.2c-0.6,0.1-1.3,0.2-1.9,0.2h-0.2
				c-0.6,0-1.2,0-1.8,0h-0.2c-0.4,0-0.8,0-1.2-0.1h-0.1c-0.5,0-1-0.1-1.5-0.2l-0.4-0.1c-0.4-0.1-0.7-0.1-1.1-0.2l-0.5-0.1l-0.3-0.1
				c-0.4-0.1-0.7-0.2-1.1-0.3h-0.1c-0.4-0.1-0.9-0.3-1.3-0.5l-0.3-0.1c-0.4-0.2-0.9-0.4-1.3-0.7l-104-59.9c-0.4-0.2-0.8-0.5-1.1-0.7
				c-0.1-0.1-0.2-0.2-0.3-0.3s-0.5-0.4-0.7-0.5c-0.2-0.2-0.2-0.2-0.4-0.3c-0.1-0.1-0.4-0.4-0.5-0.5s-0.2-0.2-0.3-0.4l-0.3-0.3
				l-0.2-0.3l-0.3-0.4c-0.1-0.2-0.3-0.4-0.4-0.6c-0.1-0.1-0.1-0.2-0.2-0.4c-0.1-0.2-0.3-0.5-0.4-0.7c0-0.1-0.1-0.2-0.1-0.3
				c-0.1-0.3-0.3-0.7-0.4-1l0,0c-0.1-0.4-0.2-0.8-0.3-1.2l-0.6-3.4C0.2,329.9,0.3,330.3,0.5,330.6z"/>
		</g>
		<g>
			<g>
				<defs>
					<polygon id="SVGID_3_" points="16.9,332.2 102.6,249.7 196.7,304 111,386.5 					"/>
				</defs>
				<clipPath id="SVGID_4_">
					<use xlink:href="#SVGID_3_"  style="overflow:visible;"/>
				</clipPath>
				<g class="st10">
					<path class="st11" d="M82.3,309c-1.7-1-1-3.6,1.4-6s5.7-3.5,7.4-2.5s1,3.6-1.4,6S83.9,309.9,82.3,309 M112.4,326.4
						c-1.7-1-1-3.6,1.4-6s5.7-3.4,7.4-2.5c1.7,1,1,3.6-1.4,6S114,327.3,112.4,326.4 M120,283.7c-22-7.8-50.5-2.2-67.7,14.4
						c-19.5,18.8-17.1,44.6,5.5,57.6s56.7,8.4,76.2-10.4l0,0c-19.5,18.8-53.6,23.4-76.2,10.4c-14.5-8.4-20.7-21.9-18.1-35.6
						c2.9,6.8,8.3,12.8,16.1,17.4c2.1,1.2,4.4,2.3,6.6,3.2c-8.6-8.7-8.8-21.3-0.2-31.6l51.6,29.8c6.7-2.9,12.7-6.9,18-11.9
						c3.1-2.9,5.8-6.3,8-9.9l-13.3-20.8c-0.6-0.4-1.2-0.8-1.8-1.1c-21-12.1-52.6-7.8-70.8,9.7c-5.4,5-9.4,11.5-11.3,18.7
						c0.6-8.2,4.6-16.5,12.1-23.8c16.9-16.3,45.6-21.1,66.3-11.9l0,0c-0.7-1-1.1-2.2-1.3-3.4C120,284.2,120,284,120,283.7"/>
					<path class="st12" d="M140,317.1c-2.2,3.7-4.9,7-8,9.9c-5.3,5-11.3,9-18,11.9l3.2,1.9c-13,10.2-32.9,12.6-47,5.5l0,0l-0.3-0.1
						l0,0l-0.3-0.1l-0.2-0.1c-0.1,0-0.1-0.1-0.2-0.1l-0.2-0.1l-0.2-0.1l-0.3-0.2l-0.3-0.2l-0.1,0L68,345l-0.1-0.1l-0.2-0.1l-0.1-0.1
						l-0.2-0.1l-0.1-0.1l-0.2-0.1l-0.1-0.1l-0.2-0.2l-0.1-0.1l-0.2-0.2l-0.1-0.1l-0.2-0.2l-0.1,0l-0.2-0.2l0,0l-0.3-0.2l0,0
						l-0.3-0.2l0,0l-0.5-0.4l0,0c-0.8-0.6-1.6-1.3-2.3-2c-2.3-0.9-4.5-2-6.7-3.2c-7.8-4.5-13.2-10.6-16.1-17.4
						c-2.6,13.6,3.6,27.2,18.1,35.6c22.5,13,56.7,8.4,76.2-10.4l0,0c5.6-5.1,9.7-11.7,11.9-18.9l-3.1-4.9c-0.2,1.2-0.4,2.3-0.7,3.5
						c0.1-1.5,0.1-3,0-4.6L140,317.1"/>
					<path class="st13" d="M142.1,320.4c0.1,1.5,0.1,3,0,4.6c0.3-1.2,0.5-2.3,0.7-3.5L142.1,320.4 M121.3,287.8
						c-20.8-9.2-49.4-4.3-66.3,11.9c-7.5,7.3-11.5,15.6-12.2,23.8c1.9-7.2,5.9-13.6,11.3-18.7c18.1-17.5,49.8-21.8,70.8-9.7
						c0.6,0.4,1.3,0.7,1.8,1.1L121.3,287.8"/>
					<path class="st14" d="M91.1,300.5c-1.7-1-5,0.1-7.4,2.5c-2.4,2.3-3.1,5-1.4,6s5-0.1,7.4-2.5C92.1,304.2,92.7,301.5,91.1,300.5"
						/>
					<path class="st14" d="M121.2,317.9c-1.7-1-5,0.1-7.4,2.5c-2.4,2.3-3,5-1.4,6s5-0.2,7.4-2.5
						C122.2,321.6,122.8,318.9,121.2,317.9"/>
					<path class="st15" d="M68.2,345.1l0.3,0.2L68.2,345.1 M69.1,345.6l-0.2-0.1L69.1,345.6 M67.9,344.9l0.3,0.1L67.9,344.9
						 M69.4,345.8l-0.2-0.1C69.3,345.7,69.4,345.8,69.4,345.8 M67.6,344.7l0.2,0.1L67.6,344.7 M69.9,346l-0.3-0.1L69.9,346
						 M67.2,344.5l0.2,0.1L67.2,344.5 M70.2,346.2l-0.3-0.1L70.2,346.2 M66.9,344.3l0.2,0.1L66.9,344.3 M66.6,344.1l0.2,0.2
						L66.6,344.1 M66.3,343.9l0.2,0.2L66.3,343.9 M66,343.7l0.2,0.2L66,343.7 M65.7,343.4l0.2,0.2L65.7,343.4 M65.4,343.2l0.3,0.2
						L65.4,343.2 M65.1,343l0.3,0.2L65.1,343 M64.8,342.8l0.3,0.2L64.8,342.8 M117.2,340.7l-3.3-1.8l-51.6-29.8
						c-8.7,10.3-8.4,23,0.2,31.6c0.7,0.7,1.5,1.4,2.3,2c-4.7-3.6-7.8-8.8-8.6-14.6c8,1.2,15.6,3.8,22.7,7.7
						c5.9,3.2,10.8,7.9,14.4,13.7l-0.3,0.6c-7.8,0.8-15.6-0.5-22.7-3.9C84.4,353.3,104.2,350.9,117.2,340.7"/>
					<path class="st16" d="M78.8,335.8c-7-3.9-14.7-6.5-22.7-7.7c0.9,5.8,4,11.1,8.6,14.6l0,0l0.3,0.2l0,0l0.3,0.2l0,0l0.3,0.2l0,0
						l0.2,0.2l0.1,0.1l0.2,0.2l0.1,0.1l0.2,0.2l0.1,0l0.2,0.2l0.1,0.1l0.2,0.1l0.1,0.1l0.2,0.1l0.1,0.1l0.2,0.1l0.1,0.1L68,345
						l0.1,0.1l0.3,0.2l0.3,0.2l0.2,0.1l0.2,0.1l0.2,0.1l0.2,0.1l0.3,0.1l0,0l0.3,0.1l0,0c7,3.4,14.9,4.7,22.7,3.9l0.3-0.6
						c-3.5-5.7-8.5-10.4-14.4-13.7"/>
					<path class="st17" d="M132.6,271.6c-7.4,1.2-12.9,6.6-12.6,12.1c0,0.2,0,0.5,0.1,0.7c0.2,1.2,0.6,2.4,1.3,3.4l0,0l5.4,8.5
						l13.3,20.8l2.1,3.2l0.7,1l3.1,4.9l10.5,16.5l-31.7-56.4c-0.6-1.1-0.9-2.2-1-3.5C123.4,278.2,127.1,273.7,132.6,271.6"/>
					<path class="st18" d="M143.4,273.3c-3.3-1.8-7-2.4-10.7-1.7h-0.2c-5.5,2.1-9.2,6.6-8.9,11.3c0.1,1.2,0.4,2.4,1,3.4l31.7,56.4
						l-8.1-62.8C147.8,277.1,146,274.6,143.4,273.3"/>
				</g>
			</g>
		</g>
		<g>
			<g>
				<defs>
					<polygon id="SVGID_5_" points="80.7,252.9 227.5,111.7 347.8,181.1 201,322.3 					"/>
				</defs>
				<clipPath id="SVGID_6_">
					<use xlink:href="#SVGID_5_"  style="overflow:visible;"/>
				</clipPath>
				<g class="st19">
					<path class="st4" d="M302.7,165.4c-1-0.5-2.2-0.4-3,0.4c-0.3,0.3-0.5,0.7-0.5,1.2c0.1,0.4,0.3,0.8,0.7,1c1,0.5,2.2,0.4,2.9-0.4
						c0.6-0.4,0.7-1.2,0.4-1.7C303.2,165.7,303,165.5,302.7,165.4 M271.3,147c-0.8-0.4-1.8-0.3-2.5,0.3l2.8,1.6
						c0.5-0.4,0.6-1,0.2-1.5C271.7,147.2,271.5,147.1,271.3,147 M254.8,135.2l-4,1.9l2.5,1.4L254.8,135.2 M294,157.8l-4,2l2.5,1.4
						L294,157.8 M238.4,133.9c-0.8-0.4-1.1-1.4-0.7-2.2c0.1-0.2,0.3-0.4,0.5-0.6c1-0.9,2.5-1.1,3.7-0.5c0.8,0.4,1.1,1.4,0.7,2.2
						c-0.1,0.2-0.3,0.4-0.5,0.6C241,134.4,239.6,134.6,238.4,133.9 M316.1,178.8c-0.8-0.4-1.1-1.4-0.7-2.2c0.1-0.2,0.3-0.4,0.5-0.6
						c1-0.9,2.5-1.1,3.7-0.5c0.8,0.4,1.1,1.4,0.7,2.2c-0.1,0.2-0.3,0.4-0.4,0.5C318.8,179.2,317.3,179.4,316.1,178.8 M293.5,165.8
						l4.6-4.4l1.4,0.8l-4.6,4.4L293.5,165.8 M306.7,172c0.8,0.4,1.8,0.2,2.4-0.4l2.5-2.4l1.3,0.8l-4.6,4.4l-1.3-0.7l0.7-0.7l0,0
						c-0.8,0.4-1.7,0.3-2.5-0.1c-1.6-0.9-0.9-2.1-0.2-2.8l3-2.8l1.3,0.8l-2.4,2.2C306.1,171,306,171.6,306.7,172 M256.7,144.7
						c-0.7-0.4-1.3-1-1.4-1.9c-0.1-0.8,0.3-1.6,0.9-2.1c0.7-0.7,1.6-1.1,2.5-1.2c1-0.1,1.9,0.1,2.8,0.6c0.7,0.3,1.2,1,1.2,1.8
						l-1.7,0.2c0-0.4-0.2-0.8-0.5-1c-0.5-0.3-1-0.4-1.5-0.3c-0.5,0.1-1,0.3-1.4,0.7c-0.6,0.4-0.7,1.2-0.3,1.8
						c0.1,0.2,0.3,0.3,0.5,0.4c0.4,0.3,1,0.3,1.5,0.2l0.1,1.3C258.4,145.3,257.5,145.2,256.7,144.7 M262.1,147.9
						c-1.2-0.5-1.7-1.9-1.2-3.1c0.2-0.4,0.4-0.7,0.7-0.9c0.7-0.7,1.6-1.1,2.5-1.2c1-0.1,1.9,0.1,2.8,0.6c0.7,0.3,1.2,1,1.2,1.8
						l-1.7,0.2c0-0.4-0.2-0.8-0.5-1c-0.5-0.3-1-0.4-1.5-0.3c-0.5,0.1-1,0.3-1.4,0.7c-0.6,0.4-0.7,1.2-0.3,1.8
						c0.1,0.2,0.3,0.3,0.5,0.4c0.4,0.3,1,0.3,1.5,0.2l0.1,1.3C263.8,148.5,262.9,148.3,262.1,147.9 M267.5,151
						c-0.7-0.4-1.3-1-1.4-1.9c-0.1-0.8,0.2-1.7,0.9-2.2c1.4-1.4,3.6-1.6,5.3-0.6c0.7,0.3,1.2,1,1.2,1.7c-0.1,0.8-0.5,1.6-1.1,2.1
						l-0.3,0.3l-4-2.4c-0.5,0.4-0.5,1.2,0,1.6c0.1,0.1,0.2,0.2,0.4,0.3c0.6,0.3,1.4,0.4,2.1,0.2l0.3,1.2
						C269.7,151.6,268.5,151.5,267.5,151 M276.5,150L276.5,150c0.8-0.4,1.7-0.3,2.5,0.1c1.6,0.9,0.9,2.2,0.2,2.8l-3,2.8l-1.3-0.8
						l2.4-2.3c0.9-0.8,1-1.4,0.3-1.8c-0.8-0.4-1.8-0.3-2.4,0.4l-2.6,2.4l-1.3-0.8l4.6-4.4l1.3,0.7L276.5,150 M298.7,168.9
						c-0.7-0.3-1.2-1-1.2-1.8c0-0.8,0.3-1.5,0.9-2c0.7-0.7,1.5-1.1,2.5-1.3c0.9-0.2,1.8,0,2.6,0.4c0.9,0.5,1.2,1.1,1,1.9l0,0
						l0.7-0.7l1.3,0.7l-4.2,4.1c-1.5,1.6-3.8,2-5.7,0.8c-0.9-0.4-1.6-1.3-1.9-2.3l1.7-0.4c0.1,0.7,0.5,1.4,1.2,1.7
						c1.1,0.7,2.5,0.5,3.3-0.6l0.3-0.3l0,0C300.3,169.5,299.4,169.3,298.7,168.9 M280.7,152.9l1-0.9l1.1,0.6l1.3-1.3l1.3,0.8
						l-1.3,1.3l1.5,0.8l-1,0.9l-1.5-0.9l-2,2c-0.5,0.5-0.5,0.8,0,1.1c0.3,0.2,0.6,0.3,0.9,0.3l-1,0.9c-0.4-0.1-0.8-0.2-1.2-0.5
						c-1.3-0.7-1.3-1.4-0.2-2.5l2.2-2.1L280.7,152.9 M245.3,138.1l10.2-4.6l1.2,0.7l-3.4,8.5l-1.5-1l0.8-1.9l-3.4-2l-2.3,1.1
						L245.3,138.1 M284.7,160.7l10.3-4.6l1.2,0.7l-3.4,8.5l-1.6-0.9l0.8-1.9l-3.4-2l-2.3,1.1L284.7,160.7 M299.7,160.9
						c-0.3-0.2-0.5-0.6-0.3-0.9c0-0.1,0.1-0.2,0.2-0.2c0.4-0.4,1-0.4,1.5-0.2c0.4,0.1,0.5,0.5,0.4,0.9c0,0.1-0.1,0.2-0.2,0.3
						C300.8,161.2,300.2,161.2,299.7,160.9 M245.6,130.5c-0.6-0.3-0.8-1-0.5-1.6c0.1-0.1,0.2-0.3,0.3-0.4c0.7-0.7,1.8-0.8,2.7-0.4
						c0.6,0.3,0.8,1,0.5,1.6c-0.1,0.2-0.2,0.3-0.3,0.4C247.5,130.8,246.5,131,245.6,130.5 M318.7,172.7c-0.6-0.3-0.8-1-0.5-1.6
						c0.1-0.1,0.2-0.3,0.3-0.4c0.7-0.7,1.8-0.8,2.7-0.3c0.6,0.3,0.8,1,0.5,1.6c-0.1,0.2-0.2,0.3-0.3,0.4
						C320.7,173,319.6,173.2,318.7,172.7 M238.3,128.9c-1-0.5-1.4-1.7-0.9-2.8c0.1-0.3,0.3-0.5,0.6-0.7c1.2-1.1,3.1-1.4,4.6-0.6
						c1,0.5,1.4,1.7,0.9,2.7c-0.1,0.3-0.3,0.5-0.6,0.7C241.6,129.4,239.8,129.7,238.3,128.9 M322.7,177.6c-1-0.5-1.5-1.6-1-2.6
						c0.1-0.3,0.4-0.6,0.7-0.8c1.2-1.1,3.1-1.4,4.6-0.6c1,0.5,1.4,1.8,0.9,2.8c-0.1,0.3-0.3,0.5-0.6,0.7
						C326,178.1,324.2,178.4,322.7,177.6 M347.8,181.1l-120.3-69.4l-15,14.4l120.3,69.4L347.8,181.1"/>
					<path class="st20" d="M247.9,128.3c-0.7-0.4-1.6-0.3-2.2,0.3c-0.4,0.3-0.5,1-0.2,1.4c0.1,0.1,0.2,0.2,0.4,0.3
						c0.7,0.4,1.6,0.2,2.2-0.3c0.4-0.3,0.5-1,0.2-1.4C248.1,128.5,248,128.4,247.9,128.3"/>
					<path class="st21" d="M245.7,130.4c-0.5-0.3-0.8-0.9-0.5-1.5c0.1-0.1,0.2-0.3,0.3-0.4c0.7-0.6,1.6-0.7,2.4-0.3
						c0.5,0.3,0.8,0.9,0.5,1.5c-0.1,0.1-0.2,0.3-0.3,0.4C247.5,130.7,246.5,130.8,245.7,130.4 M248,128.2c-0.9-0.4-1.9-0.3-2.7,0.3
						c-0.5,0.4-0.6,1.2-0.2,1.7c0.1,0.1,0.2,0.2,0.4,0.3c0.9,0.4,1.9,0.3,2.7-0.4c0.5-0.4,0.6-1.2,0.2-1.7
						C248.3,128.3,248.2,128.2,248,128.2"/>
					<path class="st21" d="M245.8,130.3c-0.5-0.2-0.7-0.8-0.5-1.3c0.1-0.1,0.2-0.3,0.3-0.4c0.6-0.6,1.5-0.7,2.2-0.3
						c0.5,0.3,0.7,0.9,0.4,1.4c-0.1,0.1-0.2,0.2-0.3,0.3C247.4,130.6,246.5,130.7,245.8,130.3 M248,128.3c-0.8-0.4-1.8-0.3-2.4,0.3
						c-0.5,0.4-0.6,1.1-0.2,1.5c0.1,0.1,0.2,0.2,0.4,0.3c0.8,0.4,1.8,0.3,2.4-0.3c0.5-0.4,0.6-1.1,0.2-1.5
						C248.3,128.4,248.1,128.3,248,128.3"/>
					<path class="st22" d="M241.6,130.9c-1.1-0.5-2.4-0.4-3.2,0.4c-0.6,0.5-0.7,1.4-0.2,2.1c0.1,0.2,0.3,0.3,0.5,0.4
						c1.1,0.5,2.4,0.4,3.3-0.4c0.6-0.5,0.7-1.4,0.2-2.1C241.9,131.1,241.8,131,241.6,130.9"/>
					<path class="st21" d="M238.5,133.9c-0.8-0.4-1.1-1.3-0.7-2.1c0.1-0.2,0.3-0.4,0.4-0.5c0.9-0.9,2.3-1,3.4-0.5
						c0.8,0.4,1.1,1.3,0.7,2.1c-0.1,0.2-0.3,0.4-0.4,0.5C241,134.2,239.6,134.4,238.5,133.9 M241.8,130.7c-1.2-0.6-2.7-0.4-3.7,0.5
						c-0.7,0.6-0.8,1.6-0.3,2.3c0.1,0.2,0.3,0.3,0.6,0.5c1.2,0.6,2.7,0.4,3.7-0.5c0.7-0.6,0.8-1.6,0.3-2.3
						C242.2,131,242,130.8,241.8,130.7"/>
					<path class="st21" d="M238.6,133.7c-0.7-0.4-1-1.3-0.6-2c0.1-0.2,0.2-0.4,0.4-0.5c0.9-0.8,2.2-1,3.2-0.4c0.7,0.4,1,1.2,0.6,2
						c-0.1,0.2-0.2,0.4-0.4,0.5C240.9,134.1,239.6,134.3,238.6,133.7 M241.7,130.7c-1.1-0.6-2.5-0.4-3.4,0.5
						c-0.7,0.5-0.8,1.5-0.3,2.2c0.1,0.2,0.3,0.3,0.5,0.4c1.1,0.6,2.5,0.4,3.5-0.5c0.7-0.5,0.8-1.5,0.3-2.2
						C242.1,131,241.9,130.8,241.7,130.7"/>
					<path class="st23" d="M242.3,125c-1.4-0.7-3-0.5-4.2,0.6c-0.8,0.6-0.9,1.8-0.3,2.6c0.2,0.2,0.4,0.4,0.6,0.5
						c1.4,0.7,3,0.5,4.1-0.6c0.8-0.6,1-1.8,0.3-2.6C242.8,125.3,242.6,125.1,242.3,125"/>
					<path class="st21" d="M238.4,128.8c-1-0.5-1.3-1.7-0.8-2.7c0.1-0.2,0.3-0.4,0.5-0.6c1.2-1.1,2.9-1.3,4.4-0.6
						c1,0.5,1.3,1.7,0.8,2.7c-0.1,0.2-0.3,0.4-0.5,0.6C241.6,129.3,239.8,129.5,238.4,128.8 M242.5,124.8c-1.5-0.8-3.3-0.5-4.6,0.6
						c-0.9,0.7-1.1,2-0.4,2.9c0.2,0.2,0.4,0.4,0.7,0.6c1.5,0.8,3.3,0.5,4.6-0.6c0.9-0.7,1-2,0.4-2.9
						C243,125.1,242.8,124.9,242.5,124.8"/>
					<path class="st21" d="M238.5,128.7c-0.9-0.5-1.3-1.6-0.8-2.5c0.1-0.2,0.3-0.5,0.5-0.6c1.1-1,2.8-1.3,4.2-0.6
						c0.9,0.5,1.3,1.6,0.8,2.5c-0.1,0.2-0.3,0.5-0.5,0.6C241.5,129.2,239.9,129.4,238.5,128.7 M242.4,124.9
						c-1.4-0.7-3.2-0.5-4.4,0.6c-0.9,0.7-1,2-0.3,2.8c0.2,0.2,0.4,0.4,0.6,0.5c1.4,0.7,3.2,0.5,4.4-0.6c0.8-0.7,1-2,0.2-2.8
						C242.9,125.2,242.7,125.1,242.4,124.9"/>
					<path class="st14" d="M250.8,137.1l4-1.9l-1.6,3.4L250.8,137.1 M256.8,134.1l-1.2-0.7l-10.2,4.6l1.6,0.9l2.3-1.1l3.4,2
						l-0.8,1.9l1.6,0.9L256.8,134.1"/>
					<path class="st14" d="M261.6,140.1c-0.8-0.5-1.8-0.7-2.8-0.6c-1,0.1-1.8,0.5-2.5,1.2c-0.6,0.5-1,1.3-0.9,2.1
						c0.1,0.8,0.6,1.5,1.4,1.9c0.8,0.4,1.7,0.6,2.6,0.5l-0.1-1.3c-0.5,0.1-1,0.1-1.5-0.2c-0.7-0.3-0.9-1.1-0.6-1.7
						c0.1-0.2,0.2-0.4,0.4-0.5c0.4-0.4,0.9-0.6,1.4-0.7c0.5-0.1,1.1,0,1.5,0.3c0.3,0.2,0.5,0.6,0.5,1l1.7-0.2
						C262.8,141.1,262.3,140.4,261.6,140.1"/>
					<path class="st14" d="M267,143.2c-0.8-0.5-1.8-0.7-2.8-0.5c-1,0.1-1.9,0.5-2.5,1.2c-1,0.8-1.2,2.3-0.4,3.3
						c0.2,0.3,0.5,0.5,0.9,0.7c0.8,0.4,1.7,0.6,2.6,0.5l-0.1-1.3c-0.5,0.1-1,0.1-1.5-0.2c-0.6-0.3-0.9-1.1-0.6-1.7
						c0.1-0.2,0.2-0.4,0.4-0.5c0.4-0.4,0.9-0.6,1.4-0.7c0.5-0.1,1.1,0,1.5,0.3c0.3,0.2,0.5,0.6,0.5,1l1.7-0.2
						C268.2,144.2,267.7,143.5,267,143.2"/>
					<path class="st14" d="M268.8,147.3c0.7-0.6,1.7-0.7,2.5-0.3c0.6,0.2,0.8,0.8,0.7,1.3c-0.1,0.2-0.2,0.4-0.4,0.5L268.8,147.3
						 M272.3,146.3c-1.7-1-3.9-0.7-5.3,0.7c-0.6,0.5-1,1.3-0.9,2.1c0.1,0.8,0.6,1.5,1.4,1.9c1,0.5,2.1,0.7,3.2,0.4l-0.3-1.2
						c-0.7,0.2-1.4,0.1-2.1-0.2c-0.6-0.3-0.9-0.9-0.6-1.5c0.1-0.1,0.1-0.3,0.3-0.4l4.1,2.4l0.3-0.3c0.6-0.5,1.1-1.3,1.1-2.1
						C273.5,147.2,273.1,146.6,272.3,146.3"/>
					<path class="st14" d="M279,150.2c-0.8-0.5-1.7-0.5-2.5-0.1l0,0l0.7-0.7l-1.3-0.7l-4.6,4.4l1.3,0.8l2.5-2.4
						c0.6-0.7,1.6-0.8,2.4-0.4c0.6,0.4,0.5,1-0.3,1.8l-2.3,2.3l1.3,0.8l3-2.8C280,152.3,280.7,151.1,279,150.2"/>
					<path class="st14" d="M285.6,152l-1.3-0.8l-1.3,1.3l-1.1-0.6l-1,0.9l1.1,0.6l-2.2,2.1c-1.2,1.1-1.1,1.8,0.2,2.5
						c0.4,0.2,0.8,0.4,1.2,0.5l1-0.9c-0.3,0-0.6-0.1-0.9-0.3c-0.5-0.3-0.5-0.7,0-1.1l2-2l1.5,0.8l1-0.9l-1.5-0.9L285.6,152"/>
					<path class="st14" d="M290,159.8l4-2l-1.5,3.4L290,159.8 M296.1,156.8l-1.2-0.7l-10.3,4.7l1.6,0.9l2.3-1.1l3.4,2l-0.8,1.9
						l1.6,0.9l3.4-8.5"/>
					<path class="st14" d="M299.5,162.1l-1.4-0.8l-4.6,4.4l1.3,0.8L299.5,162.1 M301,159.6c-0.5-0.3-1.1-0.2-1.5,0.2
						c-0.3,0.2-0.3,0.7-0.1,1c0.1,0.1,0.2,0.1,0.2,0.2c0.5,0.3,1.1,0.2,1.6-0.2c0.3-0.2,0.3-0.7,0.1-1
						C301.2,159.7,301.2,159.6,301,159.6"/>
					<path class="st14" d="M300,168c-0.4-0.2-0.7-0.6-0.7-1c0-0.5,0.1-0.9,0.5-1.2c0.8-0.8,2-0.9,3-0.4c0.6,0.2,1,1,0.7,1.6
						c-0.1,0.2-0.3,0.5-0.5,0.6C302.2,168.4,301,168.6,300,168 M303.5,164.3c-0.8-0.5-1.7-0.6-2.6-0.4c-0.9,0.2-1.8,0.6-2.5,1.3
						c-0.6,0.5-0.9,1.2-0.9,2c0.1,0.8,0.5,1.4,1.2,1.8c0.7,0.4,1.6,0.6,2.4,0.4l0,0l-0.3,0.3c-0.8,1-2.2,1.2-3.3,0.5
						c-0.6-0.4-1.1-1-1.2-1.7l-1.7,0.4c0.3,1,1,1.8,1.9,2.3c1.9,1.1,4.2,0.8,5.7-0.8l4.2-4.1l-1.3-0.7l-0.7,0.7l0,0
						C304.7,165.3,304.4,164.7,303.5,164.3"/>
					<path class="st14" d="M313,169.9l-1.3-0.8l-2.5,2.4c-0.6,0.7-1.6,0.8-2.4,0.4c-0.7-0.4-0.5-1,0.3-1.8l2.4-2.3l-1.3-0.8l-3,2.8
						c-0.8,0.7-1.4,1.9,0.2,2.8c0.8,0.4,1.7,0.5,2.5,0.1l0,0l-0.7,0.7l1.3,0.7L313,169.9"/>
					<path class="st20" d="M321,170.6c-0.7-0.4-1.6-0.3-2.2,0.3c-0.4,0.3-0.5,1-0.2,1.4c0.1,0.1,0.2,0.2,0.4,0.3
						c0.7,0.4,1.6,0.2,2.2-0.3c0.4-0.3,0.5-1,0.2-1.4C321.2,170.7,321.1,170.6,321,170.6"/>
					<path class="st21" d="M318.8,172.7c-0.5-0.3-0.8-0.9-0.5-1.5c0.1-0.1,0.2-0.3,0.3-0.4c0.7-0.6,1.6-0.7,2.5-0.3
						c0.5,0.3,0.8,0.9,0.5,1.5c-0.1,0.1-0.2,0.3-0.3,0.4C320.6,172.9,319.7,173.1,318.8,172.7 M321.2,170.4
						c-0.9-0.4-1.9-0.3-2.7,0.4c-0.5,0.4-0.6,1.2-0.2,1.7c0.1,0.1,0.2,0.2,0.4,0.3c0.9,0.4,1.9,0.3,2.6-0.4c0.5-0.4,0.6-1.2,0.2-1.7
						C321.5,170.6,321.4,170.5,321.2,170.4"/>
					<path class="st21" d="M319,172.6c-0.5-0.2-0.7-0.8-0.5-1.3c0.1-0.1,0.2-0.3,0.3-0.4c0.6-0.6,1.5-0.7,2.2-0.3
						c0.5,0.2,0.7,0.8,0.5,1.3c-0.1,0.1-0.2,0.3-0.3,0.4C320.6,172.8,319.7,172.9,319,172.6 M321.1,170.5c-0.8-0.4-1.8-0.3-2.5,0.3
						c-0.5,0.4-0.6,1.1-0.2,1.5c0.1,0.1,0.2,0.2,0.4,0.3c0.8,0.4,1.8,0.3,2.5-0.3c0.5-0.4,0.6-1.1,0.2-1.5
						C321.4,170.7,321.3,170.6,321.1,170.5"/>
					<path class="st22" d="M319.3,175.7c-1.1-0.5-2.4-0.4-3.2,0.4c-0.6,0.5-0.7,1.4-0.3,2c0.1,0.2,0.3,0.3,0.5,0.4
						c1.1,0.5,2.4,0.4,3.2-0.4c0.6-0.5,0.7-1.4,0.2-2.1C319.7,176,319.5,175.8,319.3,175.7"/>
					<path class="st21" d="M316.2,178.7c-0.8-0.4-1.1-1.3-0.7-2.1c0.1-0.2,0.3-0.4,0.4-0.5c0.9-0.9,2.3-1,3.5-0.5
						c0.8,0.4,1.1,1.3,0.7,2.1c-0.1,0.2-0.3,0.4-0.4,0.5C318.7,179.1,317.3,179.3,316.2,178.7 M319.5,175.6
						c-1.2-0.6-2.7-0.4-3.7,0.5c-0.7,0.6-0.8,1.6-0.3,2.3c0.1,0.2,0.3,0.3,0.6,0.5c1.2,0.6,2.7,0.4,3.7-0.5c0.7-0.6,0.8-1.6,0.3-2.3
						C319.9,175.8,319.7,175.7,319.5,175.6"/>
					<path class="st21" d="M316.3,178.6c-0.7-0.4-1-1.2-0.7-2c0.1-0.2,0.2-0.4,0.4-0.5c0.9-0.8,2.2-1,3.2-0.4c0.7,0.4,1,1.2,0.6,2
						c-0.1,0.2-0.2,0.4-0.4,0.5C318.7,179,317.4,179.2,316.3,178.6 M319.4,175.6c-1.1-0.6-2.5-0.4-3.5,0.5c-0.7,0.5-0.8,1.5-0.3,2.2
						c0.1,0.2,0.3,0.3,0.5,0.4c1.1,0.6,2.5,0.4,3.5-0.5c0.7-0.5,0.8-1.5,0.3-2.2C319.8,175.9,319.6,175.7,319.4,175.6"/>
					<path class="st23" d="M326.7,173.7c-1.4-0.7-3-0.5-4.2,0.6c-0.8,0.6-1,1.8-0.3,2.6c0.2,0.2,0.4,0.4,0.6,0.5
						c1.4,0.7,3,0.5,4.2-0.6c0.8-0.6,1-1.8,0.3-2.6C327.2,174,327,173.9,326.7,173.7"/>
					<path class="st21" d="M322.8,177.5c-1-0.5-1.3-1.7-0.8-2.7c0.1-0.2,0.3-0.4,0.5-0.6c1.2-1.1,2.9-1.3,4.4-0.6
						c1,0.5,1.3,1.7,0.8,2.7c-0.1,0.2-0.3,0.4-0.5,0.6C325.9,178,324.2,178.3,322.8,177.5 M326.9,173.5c-1.5-0.8-3.3-0.5-4.6,0.6
						c-0.9,0.6-1.1,1.9-0.5,2.8c0.2,0.3,0.5,0.5,0.8,0.7c1.5,0.8,3.3,0.5,4.6-0.6c0.9-0.7,1-2,0.3-2.9
						C327.4,173.8,327.2,173.7,326.9,173.5"/>
					<path class="st21" d="M322.9,177.4c-0.9-0.5-1.3-1.6-0.8-2.5c0.1-0.2,0.3-0.5,0.5-0.6c1.1-1,2.8-1.3,4.2-0.6
						c0.9,0.5,1.3,1.6,0.8,2.5c-0.1,0.2-0.3,0.5-0.5,0.6C325.9,177.9,324.2,178.1,322.9,177.4 M326.8,173.6
						c-1.4-0.7-3.2-0.5-4.4,0.6c-0.9,0.7-1,2-0.3,2.8c0.2,0.2,0.4,0.4,0.6,0.5c1.4,0.7,3.2,0.5,4.4-0.6c0.8-0.7,1-2,0.2-2.8
						C327.2,173.9,327,173.8,326.8,173.6"/>
					<path class="st11" d="M259.2,207.9c-0.1,0-0.1,0.1-0.2,0.2S259.1,207.9,259.2,207.9 M259.4,207.7L259.4,207.7L259.4,207.7
						 M234.6,191c-0.8-0.4-0.5-1.7,0.6-2.8s2.7-1.6,3.5-1.2s0.5,1.7-0.6,2.8C236.9,191,235.4,191.5,234.6,191 M248.7,199.2
						c-0.8-0.4-0.5-1.7,0.6-2.8c1.1-1.1,2.7-1.6,3.5-1.2c0.8,0.4,0.5,1.7-0.6,2.8C251.1,199.1,249.5,199.7,248.7,199.2 M254.5,184.6
						c-1.7-1-3.4-1.7-5.3-2.2l-7-1c-7.6-0.2-15.6,2.5-21,7.7c-2.6,2.3-4.4,5.4-5.3,8.7c0.4-4.3,2.4-8.3,5.6-11.1
						c3.4-3.1,7.4-5.4,11.9-6.6l-3-0.4c-3.8,1.4-7.2,3.5-10.2,6.2c-9.1,8.8-7.9,20.9,2.7,27s26.6,4,35.8-4.8l0,0
						c-9.1,8.8-25.1,10.9-35.8,4.8c-6.8-3.9-9.8-10.3-8.6-16.7c1.6,3.5,4.3,6.3,7.6,8.2c1,0.6,2.1,1.1,3.1,1.5
						c-4-4.1-4.2-10-0.1-14.8l24.3,14c3.1-1.3,6-3.2,8.5-5.5c1.7-1.6,3.1-3.5,4.3-5.6C261,189.9,258.2,186.6,254.5,184.6
						 M259.6,183.5l-0.4,0.1c-0.7,0.1-1.5,0.1-2.2,0l0,0c3,2.2,5.1,5.4,5.9,9c0.4-1.1,0.8-2.2,1-3.3
						C262.9,187,261.5,185.1,259.6,183.5"/>
					<path class="st12" d="M263.9,189.2L263.9,189.2c-0.2,1.1-0.6,2.3-1,3.3c0.4,2,0.3,4-0.2,6c0.1-1.6,0-3.1-0.5-4.6
						c-1.1,2.1-2.5,4-4.3,5.6c-2.5,2.3-5.3,4.2-8.5,5.5l1.5,0.9c-6,4.7-15.1,5.8-21.7,2.7l0,0h-0.1l0,0h-0.1l0,0l-0.1-0.1h-0.1h-0.1
						h-0.1h-0.1l-0.1-0.1l0,0l-0.1-0.1l-0.2-0.1h-0.1l-0.1-0.1l0,0l-0.1-0.1h-0.1l-0.1-0.1h-0.1l-0.1-0.1h-0.1l-0.1-0.1h-0.1
						l-0.1-0.1h-0.1l-0.1-0.1l0,0l-0.1-0.1l0,0l-0.1-0.1l0,0l-0.1-0.1l0,0l-0.1-0.1l0,0l-0.1-0.1l0,0l-0.1-0.1l0,0
						c-0.3-0.2-0.6-0.5-0.8-0.8c-1.1-0.4-2.1-0.9-3.1-1.5c-3.4-1.8-6-4.7-7.6-8.2c-1.2,6.4,1.8,12.8,8.6,16.7
						c10.6,6.1,26.6,4,35.8-4.8l0,0l0.1-0.1c0,0,0.1-0.1,0.2-0.2l0.2-0.2l0,0c5.6-5.7,7-12.6,4.5-18.5"/>
					<path class="st13" d="M242.3,181.4l-8.7-1.3c-4.4,1.2-8.5,3.4-11.9,6.6c-3.2,2.9-5.2,6.9-5.6,11.1c0.9-3.4,2.7-6.4,5.3-8.7
						C226.7,183.9,234.7,181.2,242.3,181.4 M257,183.5l-7.7-1.1c1.8,0.5,3.6,1.2,5.3,2.2c3.7,2,6.5,5.3,7.7,9.3
						c0.4,1.5,0.6,3.1,0.5,4.6c0.5-2,0.5-4,0.2-6C262.1,188.9,260,185.7,257,183.5"/>
					<path class="st14" d="M238.7,187.1c-0.8-0.5-2.3,0.1-3.5,1.2s-1.4,2.3-0.6,2.8c0.8,0.5,2.3-0.1,3.5-1.2
						C239.2,188.8,239.5,187.5,238.7,187.1"/>
					<path class="st14" d="M252.9,195.3c-0.8-0.5-2.3,0.1-3.5,1.2c-1.1,1.1-1.4,2.3-0.6,2.8s2.3-0.1,3.5-1.2
						C253.3,197,253.6,195.7,252.9,195.3"/>
					<path class="st15" d="M228.1,208l0.2,0.1L228.1,208 M228.4,208.1L228.4,208.1 M227.9,207.9l0.1,0.1L227.9,207.9 M228.6,208.3
						L228.6,208.3L228.6,208.3 M227.7,207.8l0.1,0.1L227.7,207.8 M228.7,208.4L228.7,208.4L228.7,208.4 M227.6,207.7l0.1,0.1
						L227.6,207.7 M229,208.5l-0.1-0.1L229,208.5 M227.4,207.6l0.1,0.1L227.4,207.6 M229.1,208.6H229H229.1 M227.3,207.5
						L227.3,207.5L227.3,207.5 M229.3,208.7h-0.1H229.3 M227.1,207.4L227.1,207.4L227.1,207.4 M227,207.3L227,207.3L227,207.3
						 M226.9,207.2l0.1,0.1L226.9,207.2 M226.7,207.1l0.1,0.1L226.7,207.1 M226.6,207l0.1,0.1L226.6,207 M226.4,206.9l0.1,0.1
						L226.4,206.9 M226.3,206.8l0.1,0.1L226.3,206.8 M226.2,206.7l0.1,0.1L226.2,206.7 M251.1,206l-1.5-0.9l-24.3-14
						c-4,4.8-3.9,10.8,0.1,14.8c0.3,0.3,0.5,0.5,0.8,0.8c-2.1-1.7-3.4-4-3.8-6.6c3.7,0.5,7.3,1.7,10.6,3.5c2.8,1.5,5.1,3.7,6.8,6.4
						l-0.1,0.3c-3.5,0.4-7.1-0.2-10.3-1.7C235.9,211.8,245.1,210.6,251.1,206"/>
					<path class="st16" d="M233,203.6c-3.3-1.8-6.9-3.1-10.7-3.6c0.4,2.6,1.8,5,3.8,6.7l0,0l0.1,0.1l0,0l0.1,0.1l0,0l0.1,0.1l0,0
						l0.1,0.1l0,0l0.1,0.1l0,0l0.1,0.1l0,0l0.1,0.1h0.1l0.1,0.1h0.1l0.1,0.1h0.1l0.1,0.1h0.1l0.1,0.1h0.1l0.1,0.1l0,0l0.1,0.1h0.1
						l0.2,0.1l0.1,0.1l0,0l0.1,0.1h0.1h0.1h0.1h0.1l0.1,0.1l0,0h0.1l0,0h0.1l0,0c3.2,1.5,6.8,2,10.3,1.7l0.1-0.3
						c-1.7-2.7-4-4.9-6.8-6.4"/>
					<path class="st17" d="M265.5,177.8c-0.6,2.1-2.9,3.9-5.9,4.3c-0.7,0.1-1.5,0.1-2.2,0l-38.1-4.2l11.3,1.7l3,0.4l8.7,1.3l7,1
						l7.7,1.2l0,0c0.7,0.1,1.5,0.1,2.2,0l0.4-0.1C263.1,182.9,265.6,180.5,265.5,177.8"/>
					<path class="st18" d="M263.2,174.4c-1.4-0.8-3.1-1.1-4.7-0.9l-39.2,4.5l38.1,4.2c0.7,0.1,1.5,0.1,2.2,0
						c2.9-0.4,5.2-2.2,5.9-4.3l0,0c-0.1-1.5-1-2.8-2.3-3.4"/>
					<path class="st4" d="M168.7,192.2c-0.4-0.2-1-0.2-1.3,0.2c-0.3,0.2-0.3,0.6-0.1,0.8c0.1,0.1,0.1,0.1,0.2,0.2
						c0.2,0.1,0.4,0.2,0.7,0.1c0.2,0,0.5-0.1,0.6-0.3c0.3-0.2,0.3-0.5,0.1-0.8C168.9,192.3,168.8,192.2,168.7,192.2 M170.5,193.2
						c-0.4-0.2-1-0.2-1.3,0.2c-0.3,0.2-0.3,0.6-0.1,0.8c0.1,0.1,0.1,0.1,0.2,0.2c0.4,0.2,0.9,0.1,1.3-0.2c0.3-0.2,0.3-0.5,0.2-0.8
						C170.7,193.3,170.6,193.2,170.5,193.2 M176.3,196.5c-0.4-0.2-1-0.1-1.3,0.2c-0.3,0.2-0.3,0.6-0.1,0.8c0.1,0.1,0.1,0.1,0.2,0.2
						c0.2,0.1,0.4,0.1,0.6,0.1c0.5-0.1,0.9-0.5,0.9-0.9C176.6,196.8,176.5,196.6,176.3,196.5 M153.9,192c1-0.3,2.1-0.5,3.1-0.5
						c0.8-0.1,1.5,0.1,2.2,0.4c1,0.6,0.9,1.4,0,2.3c-0.2,0.2-0.4,0.3-0.6,0.5L153.9,192 M164.2,197.8c-0.2-0.2-0.4-0.5-0.4-0.8
						c-0.1-0.3,0.1-0.7,0.3-0.9c0.6-0.5,1.4-0.6,2.1-0.2c0.7,0.4,0.8,1,0.3,1.5c-0.3,0.3-0.7,0.5-1.1,0.5
						C165,198,164.6,198,164.2,197.8 M169.9,201.2c0.1-0.4,0.3-0.8,0.6-1.1c0.6-0.6,1.6-0.8,2.3-0.3c0.8,0.4,0.7,1.1,0,1.8
						c-0.3,0.3-0.6,0.5-1,0.8L169.9,201.2 M160.1,186l-1.3-0.8l-6.2,6l-1-0.6l-1,1l9.3,5.4l1.3,0.8c0.7,0.4,1.4,0.7,2.1,1
						c0.6,0.5,1.2,0.9,1.9,1.3l1.3,0.7l5.4,3.1c0.9-0.4,1.7-1,2.4-1.7c0.9-0.9,1.6-2.4-0.3-3.4c-0.8-0.4-1.6-0.6-2.5-0.5
						c-0.9,0.1-1.6,0.5-2.3,1.1c-0.3,0.3-0.6,0.7-0.7,1.1l-1.1-0.6l-1.2-0.7l-0.1-0.1c0.7-0.1,1.3-0.4,1.8-0.9
						c0.5-0.4,0.7-1,0.7-1.6c-0.2-0.7-0.6-1.3-1.3-1.6c-0.7-0.4-1.6-0.6-2.4-0.5c-0.7,0.1-1.5,0.4-2,0.9c-0.4,0.4-0.7,0.9-0.6,1.5
						l-0.3-0.1l-1.2-0.7l-0.9-0.5c0.2-0.2,0.5-0.4,0.7-0.6c1.5-1.4,1.5-2.9-0.2-3.9c-1.6-0.8-3.5-0.9-5.2-0.3L160.1,186"/>
					<path class="st17" d="M180.5,204.7c0.7-0.6,1.7-0.7,2.5-0.3c0.6,0.2,0.8,0.8,0.6,1.4c-0.1,0.2-0.2,0.4-0.4,0.5L180.5,204.7
						 M184.1,203.7c-1.7-1-3.9-0.7-5.3,0.6c-1,0.8-1.2,2.3-0.4,3.3c0.2,0.3,0.6,0.6,0.9,0.7c1,0.5,2.1,0.7,3.2,0.4l-0.3-1.2
						c-0.7,0.2-1.4,0.1-2.1-0.2c-0.6-0.3-0.9-0.9-0.6-1.5c0.1-0.1,0.2-0.3,0.3-0.4l4.1,2.4l0.3-0.3c0.6-0.5,1.1-1.3,1.2-2.1
						C185.2,204.6,184.8,204,184.1,203.7 M188.1,202.8l-1.5-0.9l-2.5,0.7l1.1,0.6L188.1,202.8"/>
					<path class="st4" d="M194.6,215.5c0.1-0.4,0.3-0.8,0.6-1.1c0.6-0.6,1.6-0.8,2.3-0.3c0.8,0.5,0.7,1.1,0,1.8
						c-0.3,0.3-0.6,0.5-1,0.8L194.6,215.5 M198.7,213.1c-0.8-0.5-1.6-0.6-2.5-0.5c-0.8,0.1-1.6,0.5-2.3,1.1
						c-0.3,0.3-0.6,0.7-0.7,1.1l-3.3-1.9c-1-0.6-1.2-1.3-0.5-2c0.4-0.3,0.8-0.6,1.3-0.9l-0.9-0.9c-0.7,0.3-1.3,0.7-1.8,1.2
						c-1.2,1.1-0.9,2.5,0.8,3.4l7.8,4.5c0.9-0.4,1.7-1,2.4-1.7C200,215.7,200.6,214.2,198.7,213.1 M241.7,242.2
						c0.1-0.8,0.1-1.5,0-2.3h0.1c0.5,0.1,1.1,0.3,1.5,0.6c0.8,0.4,0.9,1,0.5,1.3C243.2,242.1,242.4,242.3,241.7,242.2 M248.8,246.8
						c2.2-0.8,3.9-0.9,4.9-0.3s0.9,1.4,0,2.3c-0.2,0.2-0.4,0.3-0.6,0.5L248.8,246.8 M254.9,245.5c-0.8-0.4-1.7-0.6-2.6-0.7
						c-1.7,0-3.4,0.3-5,1c-0.4-0.3-0.3-0.6,0-0.9l1.6-1.6l-1.3-0.8l-1.3,1.3c-0.8,0.8-1.2,0.8-1.9,0.4l-1.1-0.6l-0.6-0.4
						c1,0,1.9-0.4,2.6-1c0.9-0.9,0.6-1.9-0.8-2.7c-1-0.5-2-0.8-3.1-0.9c-0.5,0.2-0.9,0.5-1.4,0.9c0.1,0.8,0.1,1.6,0,2.4
						c-1.3-0.4-2.6-0.1-3.6,0.7c-1,1-0.7,2.1,0.9,3c0.4,0.2,0.9,0.4,1.3,0.5l0.8-1.1c-0.3-0.1-0.7-0.3-1-0.4
						c-0.8-0.4-0.9-0.9-0.5-1.3s1.2-0.5,2.5-0.2c0.6,0.7,1.3,1.3,2.1,1.7l1,0.6c0.6,0.4,1.3,0.6,2.1,0.6c0.2,0.5,0.6,1,1.2,1.2
						l6.4,3.7c0.7-0.4,1.4-0.9,1.9-1.4C256.6,248,256.6,246.5,254.9,245.5 M258.1,252.2c-0.9-0.5-1.1-1.1-0.4-1.8
						c0.5-0.6,1.4-0.7,2.1-0.4c0.7,0.4,0.6,1-0.1,1.7l-0.9,0.9L258.1,252.2 M260.9,249c-0.7-0.4-1.6-0.6-2.4-0.4
						c-0.8,0.1-1.6,0.5-2.2,1.1c-1.2,1.1-1,2.4,0.8,3.4l0.7,0.4c-0.6,0.4-1.5,0.3-2.7-0.4c-0.2-0.1-0.4-0.3-0.6-0.4l-0.9,1l0.6,0.4
						c1.9,1.1,3.5,1.1,4.9,0.1l0.9,0.5l0.2,0.1c1.7,1,3,0.9,4.5-0.5l2-2l-1.3-0.8l-1.9,1.8c-0.9,0.8-1.4,0.9-2.3,0.4l-0.2-0.1
						l-0.9-0.5l1.1-1.1C262.4,251.1,262.4,249.8,260.9,249 M267.3,249.2c-0.4-0.2-1-0.2-1.3,0.2c-0.3,0.2-0.3,0.6-0.1,0.8
						c0.1,0.1,0.1,0.1,0.2,0.2c0.2,0.1,0.4,0.1,0.7,0.1c0.2,0,0.5-0.1,0.6-0.3c0.3-0.2,0.3-0.5,0.2-0.8
						C267.5,249.3,267.4,249.2,267.3,249.2 M269.1,250.2c-0.4-0.2-1-0.2-1.3,0.2c-0.3,0.2-0.3,0.6-0.1,0.8c0.1,0.1,0.1,0.1,0.2,0.2
						c0.4,0.2,1,0.1,1.3-0.2c0.3-0.2,0.3-0.5,0.2-0.8C269.3,250.3,269.2,250.3,269.1,250.2 M201.1,210.8c-0.4-0.3-1-0.2-1.3,0.2
						c-0.3,0.2-0.3,0.6-0.1,0.8c0.1,0.1,0.1,0.1,0.2,0.2c0.2,0.1,0.4,0.1,0.6,0.1c0.5-0.1,0.9-0.5,0.9-0.9
						C201.4,211,201.3,210.8,201.1,210.8 M256.2,242.6c-0.4-0.3-1-0.2-1.3,0.2c-0.3,0.2-0.3,0.6-0.1,0.8c0.1,0.1,0.1,0.1,0.2,0.2
						c0.2,0.1,0.4,0.1,0.6,0.1c0.5-0.1,0.9-0.5,0.9-0.9C256.5,242.8,256.4,242.6,256.2,242.6 M216.5,218.4l-1.3-0.8l-5.1,4.9
						c-0.9,0.8-1.3,1-2.2,0.4l-0.8-0.5c2.1-1.7,2.3-3.4,0.1-4.7c-0.5-0.3-1.1-0.5-1.8-0.7l-0.7,1.1c0.4,0.1,0.9,0.3,1.3,0.5
						c1.7,1,0.7,2.3-0.3,3l-3.4-2l-1.1-0.7l3-2.9l-1.3-0.8l-3.6,3.4c-0.7,0.7-1.8,0.9-2.6,0.3l-0.8,1.1c1.3,0.8,3,0.7,4.2-0.3
						l1.2,0.7l5.6,3.3c1.7,1,2.9,0.9,4.3-0.4L216.5,218.4 M219.3,220l-1.3-0.8l-7.3,7l1.3,0.8L219.3,220 M234.1,228.7l-1.3-0.8
						l-5.1,4.9c-0.9,0.9-1.3,1-2.2,0.4l-1.2-0.7c-0.4-0.2-0.7-0.4-1-0.7l-1.2-1.2l-1.2,0.7l1.2,1.2c0.5,0.6,0.6,1,0.3,1.4
						s-1.8,0.3-3.4-0.7c-2-1.2-2.4-2-1.4-3c0.3-0.3,0.6-0.5,1-0.8l-0.9-1c-0.6,0.3-1.1,0.7-1.6,1.1c-1.5,1.4-1,3,1.7,4.6
						c1.1,0.7,2.2,1.1,3.5,1.2c0.8,0.2,1.6,0,2.3-0.5c0.3-0.2,0.4-0.6,0.4-1l0.6,0.4c0.7,0.5,1.7,0.7,2.6,0.6
						c-0.1,0.5,0.3,1,1.1,1.5l0,0l5,2.9l1-1l-2.5-1.4c0.1-0.5,0.3-0.9,0.6-1.3c0.7-0.6,1.7-0.7,2.4-0.1c0.3,0.2,0.6,0.4,0.9,0.7
						l1.2-0.8c-0.4-0.4-0.8-0.7-1.2-0.9c-1.5-0.9-3.4-0.7-4.6,0.5c-0.4,0.3-0.7,0.8-0.8,1.3l-1-0.6c-0.8-0.5-0.9-1-0.2-1.6
						L234.1,228.7"/>
					<path class="st4" d="M198.8,248.2c-0.4-0.2-1-0.2-1.3,0.2c-0.3,0.2-0.3,0.6-0.1,0.8c0.1,0.1,0.1,0.1,0.2,0.2
						c0.4,0.2,1,0.2,1.3-0.2c0.3-0.2,0.3-0.5,0.2-0.8C199,248.3,198.9,248.2,198.8,248.2 M200.6,249.2c-0.4-0.2-1-0.2-1.4,0.2
						c-0.3,0.2-0.3,0.6-0.1,0.8c0.1,0.1,0.1,0.1,0.2,0.2c0.4,0.2,1,0.1,1.3-0.2c0.3-0.2,0.3-0.6,0.1-0.8
						C200.8,249.3,200.7,249.2,200.6,249.2 M197,232.3c-0.4-0.3-1-0.2-1.3,0.2c-0.3,0.2-0.3,0.6-0.1,0.8c0.1,0.1,0.1,0.1,0.2,0.2
						c0.2,0.1,0.4,0.1,0.6,0.1c0.5-0.1,0.9-0.5,0.9-0.8C197.3,232.5,197.2,232.3,197,232.3 M200.6,234.4c-0.4-0.3-1-0.2-1.4,0.2
						c-0.3,0.2-0.3,0.6-0.1,0.8c0.1,0.1,0.1,0.1,0.2,0.2c0.2,0.1,0.4,0.1,0.6,0.1c0.5-0.1,0.9-0.5,0.9-0.9
						C200.9,234.6,200.8,234.4,200.6,234.4 M181.9,223.3c-0.4-0.2-1-0.2-1.3,0.2c-0.3,0.2-0.3,0.6-0.1,0.8c0.1,0.1,0.1,0.1,0.2,0.2
						c0.2,0.1,0.4,0.2,0.7,0.1c0.2,0,0.5-0.1,0.6-0.3c0.3-0.2,0.3-0.5,0.2-0.8C182.1,223.4,182,223.3,181.9,223.3 M183.7,224.3
						c-0.4-0.2-1-0.2-1.3,0.2c-0.3,0.2-0.3,0.6-0.1,0.8c0.1,0.1,0.1,0.1,0.2,0.2c0.4,0.2,1,0.1,1.3-0.2c0.3-0.2,0.3-0.5,0.2-0.8
						C183.9,224.4,183.8,224.3,183.7,224.3 M170.9,225c-0.9-0.5-1.1-1-0.5-1.6c0.6-0.6,1.6-0.6,2.3-0.1l0.9,0.5l-1.7,1.6
						C171.6,225.3,171.3,225.2,170.9,225 M177.4,228.9c-0.2-0.2-0.4-0.5-0.4-0.8c-0.1-0.3,0.1-0.7,0.3-0.9c0.6-0.5,1.4-0.5,2.1-0.1
						c0.7,0.4,0.8,1,0.3,1.5c-0.3,0.3-0.7,0.4-1.1,0.5C178.2,229.1,177.8,229,177.4,228.9 M182.9,232.2c2.3-0.7,4.3-0.7,5.3-0.1
						s0.9,1.4,0,2.3c-0.2,0.2-0.4,0.3-0.6,0.5L182.9,232.2 M189.1,226.2l-1.3-0.8l-6.2,6l-1-0.6l-1.2-0.7l-0.1-0.1
						c0.7-0.1,1.3-0.4,1.8-0.9c0.5-0.4,0.7-1,0.6-1.6c-0.2-0.7-0.6-1.3-1.3-1.6c-0.7-0.4-1.6-0.6-2.4-0.5c-0.7,0.1-1.5,0.4-2,0.9
						c-0.4,0.4-0.7,0.9-0.7,1.5l-0.1-0.1l-1.3-0.6c-0.8-0.4-0.8-0.7-0.1-1.4l2.1-2.1l-2.1-1.2c-0.8-0.5-1.7-0.7-2.7-0.7
						c-0.8,0.1-1.6,0.4-2.2,1c-0.5,0.4-0.8,1.1-0.6,1.7c0.2,0.7,0.7,1.2,1.3,1.5c0.6,0.3,1.2,0.5,1.8,0.6c0,0.4,0.5,0.9,1.5,1.5
						l1.3,0.8c0.7,0.4,1.4,0.7,2.1,1c0.6,0.5,1.2,0.9,1.9,1.3l1.3,0.7l9.2,5.3c0.8,0.5,1.7,0.7,2.6,0.6c-0.1,0.5,0.3,1,1.1,1.5
						c1.4,1.1,3.3,0.8,4.4-0.5l2-1.9l-1.3-0.8l-1.9,1.8c-0.9,0.9-1.4,0.9-2.3,0.4s-0.9-1-0.2-1.6l2-2l-1.2-0.8l-1.9,1.8
						c-0.9,0.9-1.4,0.9-2.3,0.4l-0.9-0.5c0.3-0.2,0.5-0.4,0.7-0.6c1.5-1.4,1.5-2.9-0.2-3.9c-1.6-0.8-3.5-0.9-5.2-0.3l4.9-4.7
						 M222.8,245.8l-1.3-0.8l-5.1,4.9c-0.9,0.9-1.3,1-2.2,0.4l-1-0.6c0.7-0.5,1.1-1.3,1.3-2.1c0-1-0.4-2.1-1.2-2.8l4.9-0.6l-0.1-1.2
						l-5.8,0.7l-1.1,1c0.7,0.6,1.3,1.4,1.5,2.3c0,0.7-0.3,1.4-0.8,1.8l-0.1,0.1l-3.5-2l-1.3-0.7c-0.4-0.2-0.7-0.4-1-0.7l-1.2-1.2
						l-1.2,0.6l1.2,1.2c0.5,0.6,0.6,1,0.3,1.4s-1.8,0.3-3.4-0.7c-2-1.2-2.4-2-1.4-3c0.3-0.3,0.6-0.5,1-0.8l-0.9-1
						c-0.6,0.3-1.1,0.7-1.6,1.1c-1.4,1.4-1,3,1.7,4.6c1.1,0.7,2.2,1.1,3.5,1.3c0.8,0.2,1.6,0,2.3-0.5c0.3-0.2,0.5-0.6,0.4-1l0.6,0.4
						l5.8,3.3c1.7,1,2.9,0.9,4.3-0.4l5.4-5.1"/>
					<path class="st4" d="M122.5,216.6c-0.3-0.2-0.7-0.3-1.1-0.2c-0.4,0-0.8,0.2-1.1,0.5c-0.3,0.2-0.4,0.6-0.4,0.9
						c0,0.3,0.2,0.6,0.5,0.8c0.3,0.2,0.7,0.3,1.1,0.2c0.4,0,0.8-0.2,1.1-0.5c0.3-0.2,0.4-0.5,0.4-0.9
						C123,217,122.8,216.7,122.5,216.6"/>
					<path class="st17" d="M135.5,220.1l-4.1-2.4L126,223l4.3,2.4l0.7-0.7l-3.4-2l1.8-1.7l3,1.7l0.7-0.7l-3-1.7l1.6-1.6l3.2,1.9
						L135.5,220.1 M136.2,218.3l-1.1-0.6l-2,0.5l0.7,0.4L136.2,218.3"/>
					<path class="st24" d="M137,222.2l-0.8-0.5l-1,1l-0.9-0.5l-0.6,0.6l0.9,0.5l-1.9,1.9c-0.2,0.2-0.4,0.4-0.5,0.7
						c-0.3,0.4-0.1,0.8,0.6,1.2c0.3,0.2,0.5,0.3,0.9,0.3l0.6-0.6c-0.2,0-0.5-0.1-0.7-0.2c-0.5-0.3-0.4-0.6,0.1-1.1l1.8-1.7l1.1,0.7
						l0.6-0.6l-1.1-0.7L137,222.2"/>
					<path class="st17" d="M137.3,226.3c0.3-0.3,0.7-0.4,1.1-0.5c0.4-0.1,0.9,0,1.3,0.2c0.8,0.4,0.8,1.1,0.2,1.7L137.3,226.3
						 M140.2,225.5c-0.6-0.4-1.4-0.5-2.1-0.4c-0.8,0.1-1.5,0.5-2,1c-0.5,0.4-0.8,1-0.8,1.7c0.1,0.6,0.5,1.1,1,1.4
						c0.8,0.5,1.7,0.6,2.6,0.4l-0.2-0.7c-0.6,0.2-1.2,0.1-1.7-0.1c-0.3-0.2-0.6-0.5-0.7-0.9c-0.1-0.4,0-0.8,0.3-1l3.4,2l0.2-0.2
						C141.5,227.4,141.4,226.3,140.2,225.5 M143.3,224.7l-1.1-0.6l-2,0.5l0.8,0.4L143.3,224.7"/>
					<path class="st4" d="M111,227.7c-0.3-0.2-0.7-0.3-1.1-0.2c-0.4,0-0.8,0.2-1.1,0.5c-0.3,0.2-0.4,0.6-0.4,0.9
						c0,0.3,0.2,0.6,0.5,0.8c0.3,0.2,0.7,0.3,1.1,0.2c0.4,0,0.8-0.2,1.1-0.5c0.3-0.2,0.4-0.6,0.4-0.9
						C111.5,228.1,111.3,227.8,111,227.7"/>
					<path class="st24" d="M116,234l1.9-1.8l1.3,0.7c0.8,0.5,1,1.1,0.4,1.7c-0.6,0.6-1.6,0.6-2.3,0.1L116,234 M118.5,231.5l1.6-1.6
						l1.4,0.8c0.4,0.1,0.6,0.6,0.4,1c-0.1,0.1-0.1,0.3-0.3,0.3c-0.5,0.5-1.4,0.6-2,0.1L118.5,231.5 M122.1,230.1l-2.2-1.3l-5.4,5.2
						l2.2,1.3c0.6,0.4,1.3,0.5,2,0.5c0.6,0,1.3-0.3,1.7-0.7c0.6-0.4,0.7-1.2,0.3-1.8c-0.1-0.1-0.2-0.2-0.3-0.3l0,0
						c0.8,0.2,1.7,0,2.3-0.5c0.4-0.3,0.6-0.8,0.5-1.3C123,230.8,122.6,230.4,122.1,230.1"/>
					<polyline class="st24" points="126.5,232.1 125.7,231.7 119.9,237.3 120.7,237.7 126.5,232.1 					"/>
					<path class="st17" d="M124.7,236.7c0.3-0.3,0.7-0.4,1.1-0.5c0.4-0.1,0.9,0,1.3,0.2c0.8,0.4,0.8,1.1,0.2,1.7L124.7,236.7
						 M127.7,236c-0.6-0.4-1.4-0.5-2.1-0.4c-0.8,0.1-1.5,0.5-2,1c-0.5,0.4-0.8,1-0.8,1.7c0.1,0.6,0.5,1.1,1,1.4
						c0.8,0.5,1.7,0.6,2.6,0.4l-0.2-0.7c-0.6,0.2-1.2,0.1-1.7-0.1c-0.3-0.2-0.6-0.5-0.7-0.9c-0.1-0.4,0-0.8,0.3-1l3.4,2l0.2-0.2
						C129,237.9,128.9,236.7,127.7,236 M130.7,235.2l-1.1-0.7l-2,0.5l0.7,0.4L130.7,235.2"/>
					<path class="st4" d="M99.5,238.7c-0.3-0.2-0.7-0.3-1.1-0.2c-0.4,0-0.8,0.2-1.1,0.5c-0.3,0.2-0.4,0.6-0.4,0.9
						c0,0.3,0.2,0.6,0.5,0.8c0.3,0.2,0.7,0.3,1.1,0.2c0.4,0,0.8-0.2,1.1-0.5c0.3-0.2,0.4-0.6,0.4-0.9
						C100,239.2,99.8,238.9,99.5,238.7"/>
					<path class="st24" d="M104.4,245l1.9-1.8l1.3,0.7c0.8,0.5,1,1.1,0.4,1.7c-0.6,0.6-1.6,0.6-2.3,0.1L104.4,245 M107,242.6
						l1.6-1.6l1.4,0.8c0.4,0.1,0.6,0.6,0.5,1c-0.1,0.1-0.1,0.3-0.3,0.4c-0.5,0.5-1.4,0.6-2,0.1L107,242.6 M110.6,241.2l-2.2-1.3
						l-5.3,5.2l2.2,1.3c0.6,0.4,1.3,0.5,2,0.5c0.6,0,1.3-0.3,1.7-0.7c0.6-0.4,0.7-1.2,0.3-1.8c-0.1-0.1-0.2-0.2-0.3-0.3l0,0
						c0.8,0.2,1.7,0,2.3-0.5c0.4-0.3,0.6-0.8,0.5-1.3c-0.2-0.5-0.5-0.9-1-1.1"/>
					<path class="st17" d="M111.1,246.6c0.3-0.3,0.7-0.4,1.1-0.5c0.4-0.1,0.9,0,1.3,0.2c0.8,0.4,0.8,1.1,0.2,1.7L111.1,246.6
						 M114,245.8c-0.6-0.4-1.4-0.5-2.1-0.4c-0.8,0.1-1.5,0.5-2,1c-0.5,0.4-0.8,1-0.8,1.7c0.1,0.6,0.4,1.1,1,1.4
						c0.8,0.5,1.7,0.6,2.6,0.4l-0.2-0.7c-0.6,0.2-1.2,0.1-1.7-0.1c-0.3-0.2-0.6-0.5-0.7-0.9c-0.1-0.4,0-0.8,0.3-1l3.4,2l0.2-0.2
						C115.3,247.8,115.2,246.6,114,245.8 M117.1,245.1l-1.2-0.7l-2,0.5l0.8,0.4L117.1,245.1"/>
					<path class="st24" d="M116.1,251.9c-0.4-0.2-0.6-0.5-0.7-0.9c0-0.4,0.2-0.8,0.5-1.1c0.4-0.4,0.8-0.6,1.3-0.7
						c0.5-0.1,0.9,0,1.3,0.3c0.8,0.5,0.9,1.3,0.1,2C118,252.2,116.9,252.3,116.1,251.9 M119.9,246l-0.8-0.5l-5.8,5.6l0.8,0.5
						l0.5-0.5l0,0c0,0.6,0.3,1.2,0.9,1.4c0.6,0.4,1.4,0.5,2.1,0.4c0.8-0.1,1.5-0.5,2-1c0.5-0.4,0.8-1,0.8-1.7
						c-0.1-0.6-0.4-1.1-1-1.4c-0.6-0.4-1.4-0.5-2.1-0.3l0,0L119.9,246"/>
					<path class="st17" d="M121.5,252.6c0.3-0.3,0.7-0.4,1.1-0.5c0.4-0.1,0.9,0,1.3,0.2c0.8,0.4,0.8,1.1,0.2,1.7L121.5,252.6
						 M124.4,251.8c-0.6-0.4-1.4-0.5-2.1-0.4c-0.8,0.1-1.5,0.5-2,1c-0.5,0.4-0.8,1-0.8,1.7c0.1,0.6,0.4,1.1,1,1.4
						c0.8,0.5,1.7,0.6,2.6,0.4l-0.2-0.7c-0.6,0.2-1.2,0.1-1.7-0.1c-0.4-0.2-0.6-0.5-0.7-0.9c-0.1-0.4,0-0.8,0.3-1l3.4,2l0.2-0.2
						C125.7,253.8,125.7,252.6,124.4,251.8 M127.5,251.1l-1.1-0.7l-2,0.5l0.7,0.4L127.5,251.1"/>
					<path class="st4" d="M88,249.9c-0.3-0.2-0.7-0.3-1.1-0.2c-0.4,0-0.8,0.2-1.1,0.5c-0.3,0.2-0.4,0.6-0.4,0.9
						c0,0.3,0.2,0.6,0.5,0.8c0.3,0.2,0.7,0.3,1.1,0.2c0.4,0,0.8-0.2,1.1-0.5c0.3-0.2,0.4-0.6,0.4-0.9C88.5,250.3,88.3,250,88,249.9"
						/>
					<path class="st24" d="M99.9,252.6c-1-0.6-2.1-0.8-3.2-0.6c-1.1,0.2-2.2,0.7-3,1.5c-0.7,0.6-1,1.4-1.1,2.3
						c0.1,1,0.6,1.8,1.5,2.3c1,0.6,2.2,0.7,3.3,0.5l-0.3-0.9c-0.8,0.3-1.7,0.2-2.4-0.3c-0.6-0.3-1-0.9-1.1-1.6
						c0-0.7,0.3-1.4,0.8-1.8c0.6-0.6,1.4-1,2.3-1.1c0.8-0.2,1.6,0,2.3,0.4c0.6,0.3,0.9,0.8,0.9,1.5h1.2
						C101.2,253.8,100.7,253,99.9,252.6"/>
					<path class="st24" d="M99.5,260.2c-0.6-0.4-0.7-0.7-0.3-1.1s1.2-0.4,2.3,0.3l0.4,0.3l-0.2,0.2
						C101.2,260.5,100.2,260.6,99.5,260.2 M102.9,257.2c-0.7-0.4-1.4-0.6-2.2-0.5l0.1,0.7c0.6-0.1,1.1,0,1.6,0.3
						c0.6,0.4,0.7,0.9,0.2,1.3l-0.1,0.1l-0.6-0.3c-1.6-0.9-2.8-0.9-3.6-0.1c-0.8,0.7-0.5,1.4,0.4,1.9c0.6,0.4,1.4,0.5,2.1,0.2l0,0
						c-0.2,0.2-0.4,0.4-0.5,0.5l0.7,0.4c0.2-0.2,0.4-0.4,0.6-0.6l2-1.9c0.3-0.3,0.5-0.7,0.4-1.1
						C103.9,257.9,103.5,257.5,102.9,257.2"/>
					<path class="st24" d="M109.8,257.8c-1-0.6-2.2-0.4-2.9,0.5l-0.8,0.8l-0.9-0.5l-0.6,0.6l0.9,0.5l-3,2.9l0.8,0.5l3-2.9l1,0.6
						l0.6-0.6l-1-0.5l0.9-0.8c0.6-0.6,1-0.6,1.5-0.4c0.2,0.1,0.3,0.2,0.4,0.3l0.7-0.5C110.1,258,110,257.9,109.8,257.8"/>
					<path class="st17" d="M107.8,262.5c0.3-0.3,0.7-0.4,1.1-0.5c0.4-0.1,0.9,0,1.3,0.2c0.8,0.4,0.8,1.1,0.2,1.7L107.8,262.5
						 M110.8,261.7c-0.6-0.4-1.4-0.5-2.1-0.4c-0.8,0.1-1.5,0.5-2,1c-0.5,0.4-0.8,1-0.8,1.7c0.1,0.6,0.4,1.1,1,1.4
						c0.8,0.5,1.7,0.6,2.6,0.4l-0.2-0.7c-0.6,0.2-1.2,0.1-1.7-0.1c-0.3-0.2-0.6-0.5-0.7-0.9c-0.1-0.4,0-0.8,0.3-1l3.4,2l0.2-0.2
						C112.1,263.6,112,262.5,110.8,261.7 M113.9,260.9l-1.1-0.6l-2,0.5l0.7,0.4L113.9,260.9"/>
					<path class="st25" d="M222.5,279.7c-0.3-0.2-0.6-0.1-0.9,0.1c-0.2,0.1-0.2,0.4-0.1,0.5c0,0.1,0.1,0.1,0.2,0.1
						c0.3,0.1,0.6,0.1,0.9-0.1c0.2-0.1,0.2-0.4,0.1-0.5C222.6,279.8,222.5,279.8,222.5,279.7 M221.2,279c-0.1-0.1-0.3-0.1-0.4-0.1
						c-0.5,0-0.8,0.6-0.4,0.8l0,0c0.3,0.2,0.6,0.1,0.9-0.1c0.2-0.1,0.2-0.4,0.1-0.5C221.2,279,221.2,279,221.2,279 M223.5,271.7
						c-0.3-0.2-0.6-0.1-0.9,0.1c-0.2,0.1-0.2,0.4-0.1,0.5c0,0.1,0.1,0.1,0.2,0.1c0.3,0.2,0.6,0.1,0.9-0.1c0.2-0.1,0.2-0.3,0.1-0.5
						C223.6,271.8,223.5,271.7,223.5,271.7 M219.3,275.7c-0.2-0.2-0.4-0.5-0.4-0.8c0-0.3,0.1-0.6,0.3-0.8c0.5-0.5,1.3-0.5,1.9-0.1
						c0.6,0.4,0.8,0.9,0.3,1.4c-0.3,0.3-0.6,0.4-1,0.5C220,275.8,219.7,275.8,219.3,275.7 M227.7,280.8c2.2-0.7,3.7-0.8,4.7-0.3
						c0.9,0.5,0.8,1.3,0,2c-0.2,0.2-0.5,0.4-0.7,0.6L227.7,280.8 M240.4,280.1l-0.8-0.5l-4.2,4c-0.3,0.3-0.6,0.5-1,0.6
						c-0.4,0-0.7-0.1-1-0.3l-1-0.6c0.3-0.2,0.5-0.4,0.7-0.6c1.2-1.1,1.2-2.3-0.1-3c-1.3-0.7-3.4-0.7-6.3,0.3
						c-0.3-0.3-0.2-0.5,0.1-0.8l1.4-1.3l-0.8-0.5l-1,1c-0.7,0.7-1.1,0.8-1.8,0.4s-0.8-0.9-0.3-1.5l0,0l1.6-1.6l-0.8-0.5l-1.5,1.5
						c-0.7,0.7-1.3,0.8-2,0.4h-0.1l-1-0.6l-0.4-0.2c0.7,0,1.3-0.3,1.9-0.7c0.4-0.3,0.6-0.8,0.5-1.3c-0.1-0.5-0.5-0.9-0.9-1.2
						c-0.5-0.3-1.2-0.5-1.8-0.4c-0.6,0-1.1,0.3-1.5,0.7c-0.4,0.4-0.6,0.9-0.5,1.5c-0.1-0.1-0.3-0.1-0.4-0.2l-3-1.7
						c-0.9-0.5-1.1-1.1-0.4-1.7c0.3-0.3,0.7-0.5,1.1-0.8l-0.5-0.6c-0.5,0.3-1.1,0.6-1.5,1c-0.9,0.9-0.7,1.9,0.6,2.6l3.2,1.7
						c0.5,0.3,1.1,0.6,1.7,0.8c0.4,0.4,0.9,0.8,1.5,1.1l1,0.6h0.1c0.6,0.4,1.3,0.5,2,0.4c-0.1,0.5,0.2,0.9,0.9,1.3
						c0.5,0.3,1.1,0.5,1.7,0.4c0,0.4,0.2,0.7,0.8,1l6.2,3.6c1,0.7,2.3,0.6,3.1-0.3L240.4,280.1 M242.5,281.3l-0.8-0.4l-5.8,5.7
						l0.8,0.5L242.5,281.3"/>
					<path class="st25" d="M217.8,293.5c0-0.5,0.2-0.9,0.6-1.3c0.6-0.6,1.5-0.7,2.2-0.3c0.7,0.4,0.7,1,0.1,1.5
						c-0.6,0.6-1.6,0.8-2.3,0.3L217.8,293.5 M223.4,296c0-0.4,0.2-0.8,0.6-1.1c0.5-0.6,1.4-0.7,2.1-0.3c0.7,0.4,0.6,1,0,1.6
						c-0.3,0.3-0.6,0.5-1,0.8L223.4,296 M226.8,294c-0.6-0.3-1.2-0.5-1.9-0.4c-0.7,0.1-1.3,0.4-1.7,0.8c-0.3,0.3-0.6,0.7-0.6,1.1
						l-1.1-0.6l-0.8-0.4c0.3-0.1,0.5-0.3,0.7-0.5c0.4-0.3,0.7-0.8,0.7-1.4c0-0.5-0.3-0.9-0.9-1.2c-0.6-0.3-1.2-0.5-1.9-0.4
						c-0.7,0.1-1.3,0.3-1.8,0.8c-0.2,0.2-0.4,0.4-0.5,0.7l-0.8-0.5l-1-0.6c0.2-0.1,0.4-0.3,0.5-0.5c1.3-1.2,1.3-2.5-0.3-3.4
						c-0.4-0.2-0.9-0.4-1.4-0.5l-0.4,0.7c0.4,0.1,0.7,0.2,1.1,0.4c1.1,0.6,1.1,1.5,0.2,2.4c-0.2,0.2-0.3,0.3-0.5,0.4l-2.2-1.3
						c-0.9-0.6-2.1-0.4-2.9,0.3c-0.8,0.8-0.6,1.7,0.5,2.3c0.3,0.2,0.7,0.4,1.1,0.5l0.5-0.6c-0.3-0.1-0.6-0.2-0.9-0.4
						c-0.7-0.4-0.9-0.9-0.4-1.3c0.4-0.4,1.1-0.5,1.6-0.1l3.9,2.3l1.2,0.7c0,0.2,0,0.5,0.1,0.7l0.6,0.3c0.6,0.4,1.3,0.5,2,0.5
						l1.3,0.7l4.1,2.4c0.7-0.3,1.4-0.8,1.9-1.3c0.4-0.4,0.7-0.9,0.8-1.4C227.6,294.8,227.4,294.4,226.8,294 M227.8,292
						c-0.3-0.1-0.6-0.1-0.9,0.1c-0.2,0.1-0.2,0.4-0.1,0.5c0,0.1,0.1,0.1,0.1,0.1c0.3,0.2,0.7,0.1,0.9-0.1c0.2-0.1,0.2-0.4,0.1-0.5
						C227.9,292.1,227.8,292,227.8,292 M229.1,292.8c-0.3-0.2-0.6-0.1-0.9,0.1c-0.2,0.1-0.2,0.4-0.1,0.5c0,0.1,0.1,0.1,0.2,0.1
						c0.3,0.1,0.6,0.1,0.9-0.1c0.2-0.1,0.2-0.4,0.1-0.5C229.2,292.8,229.1,292.8,229.1,292.8"/>
					<path class="st25" d="M207.8,304.7c-1-0.6-1.1-1.1-0.4-1.8c0.5-0.5,1.3-0.7,2-0.3c0.6,0.4,0.6,0.9-0.1,1.6l-0.9,0.9
						L207.8,304.7 M212,307.1c0-0.5,0.2-0.9,0.5-1.2c0.5-0.6,1.4-0.7,2.1-0.3c0.6,0.4,0.7,1,0.1,1.5c-0.6,0.6-1.5,0.7-2.2,0.2
						L212,307.1 M215.3,305c-0.6-0.3-1.2-0.5-1.9-0.4c-0.7,0.1-1.3,0.4-1.7,0.8c-0.3,0.3-0.6,0.7-0.6,1.2L210,306l-0.8-0.5l1.1-1.1
						c0.9-0.9,0.8-1.8-0.2-2.4c-0.6-0.3-1.2-0.4-1.8-0.3c-0.6,0.1-1.2,0.4-1.7,0.9c-1,0.9-0.9,1.9,0.6,2.7l0.6,0.4
						c-0.6,0.4-1.4,0.3-2.5-0.3c-0.1-0.1-0.3-0.2-0.4-0.3l-0.6,0.6c0.1,0.1,0.3,0.2,0.4,0.3c1.1,0.8,2.7,0.9,3.8,0.1l0.9,0.5
						l2.4,1.4c0.6,0.4,1.4,0.6,2.1,0.5c0.6-0.1,1.2-0.4,1.6-0.8c0.4-0.3,0.7-0.9,0.7-1.4C216.1,305.7,215.8,305.2,215.3,305
						 M198.2,294.9l-1,0.3c0.5,1,0.4,2.2-0.4,3l-0.1,0.1l-2.9-1.7l-0.6,0.6l3.7,2.1l0.5-0.5c0.5-0.5,0.9-1.1,1.1-1.7
						C198.6,296.3,198.5,295.6,198.2,294.9 M200.6,300.5c-1-0.6-1.1-1.1-0.4-1.8c0.5-0.5,1.3-0.7,2-0.3c0.6,0.4,0.6,0.9-0.1,1.6
						l-0.9,0.9L200.6,300.5 M209.7,297.8l-0.8-0.5l-4.2,4c-0.3,0.3-0.6,0.5-1,0.6c-0.4,0-0.7,0-1-0.3l0,0l-0.8-0.5l1.1-1.1
						c0.9-0.9,0.8-1.8-0.2-2.4c-0.5-0.3-1.2-0.4-1.8-0.3c-0.6,0.1-1.2,0.4-1.7,0.9c-0.9,0.9-0.8,1.9,0.6,2.7l0.6,0.4
						c-0.6,0.4-1.4,0.3-2.5-0.3c-0.1-0.1-0.3-0.2-0.4-0.3l-0.6,0.6c0.1,0.1,0.3,0.2,0.4,0.3c1.5,0.9,2.8,0.9,3.8,0.1l0.9,0.5l0,0
						c1,0.7,2.3,0.6,3.1-0.3L209.7,297.8"/>
					<path class="st25" d="M186.8,310.4c-0.8-0.4-0.8-1-0.2-1.5c0.5-0.6,1.4-0.8,2.1-0.4c0.7,0.4,0.7,1,0.1,1.6
						C188.3,310.7,187.5,310.8,186.8,310.4 M189.4,307.8c-0.6-0.3-1.2-0.5-1.9-0.3c-0.7,0.1-1.3,0.4-1.7,0.9c-0.7,0.5-0.8,1.4-0.4,2
						c0.2,0.3,0.4,0.5,0.7,0.6c1.1,0.7,2.5,0.5,3.5-0.4c0.4-0.4,0.7-0.9,0.7-1.5C190.3,308.6,189.9,308.1,189.4,307.8 M194.5,317.6
						c-0.7-0.4-0.7-0.8-0.1-1.4l0.3-0.3l1.6,0.9c0,0.3-0.2,0.5-0.4,0.7C195.6,317.9,194.9,317.9,194.5,317.6 M195.4,315.3l0.9-0.9
						c0.7-0.6,1.3-0.8,1.9-0.5c0.5,0.3,0.6,0.9,0,1.3c-0.6,0.6-1.5,0.8-2.2,0.4L195.4,315.3 M191.7,313.2c-1-0.6-1.1-1.1-0.4-1.8
						c0.5-0.5,1.3-0.7,2-0.3c0.6,0.4,0.6,0.9-0.1,1.6l-0.9,0.9L191.7,313.2 M200.4,318.2c0-0.4,0.2-0.8,0.5-1.1
						c0.6-0.6,1.4-0.7,2.1-0.3c0.7,0.4,0.6,1,0,1.6c-0.3,0.3-0.6,0.5-1,0.8L200.4,318.2 M203.8,316.2c-0.6-0.3-1.2-0.5-1.9-0.4
						c-0.7,0.1-1.3,0.4-1.7,0.8c-0.3,0.3-0.5,0.7-0.6,1.1l-1-0.6l-1-0.6c0.5-0.1,1-0.4,1.4-0.9c0.4-0.3,0.6-0.8,0.6-1.2
						c0-0.5-0.3-0.9-0.8-1.1c-1.2-0.6-2.6-0.3-3.5,0.7l-0.8,0.8l-0.7-0.4L193,314l1.1-1.1c0.6-0.4,0.8-1.2,0.4-1.9
						c-0.2-0.2-0.4-0.4-0.7-0.5c-0.6-0.3-1.2-0.4-1.8-0.3c-0.6,0.1-1.2,0.4-1.7,0.9c-1,0.9-0.8,1.9,0.6,2.7l0.6,0.4
						c-0.6,0.4-1.4,0.3-2.5-0.3l-0.4-0.3l-0.6,0.6c0.1,0.1,0.3,0.2,0.4,0.3c1.5,0.9,2.8,0.9,3.8,0.1l0.9,0.5l0.7,0.4l-0.4,0.4
						c-1,0.9-0.9,1.7,0.3,2.4c0.9,0.6,2,0.6,2.8-0.1c0.2-0.2,0.4-0.5,0.5-0.8l0.7,0.4l4.1,2.4c0.7-0.3,1.4-0.8,1.9-1.3
						c0.4-0.4,0.7-0.9,0.8-1.4C204.6,316.8,204.2,316.4,203.8,316.2 M190.4,305.8c-0.3-0.2-0.6-0.1-0.9,0.1
						c-0.2,0.1-0.2,0.3-0.1,0.5c0,0.1,0.1,0.1,0.1,0.1c0.3,0.2,0.7,0.1,0.9-0.1c0.2-0.1,0.2-0.4,0.1-0.5
						C190.5,305.9,190.4,305.9,190.4,305.8 M191.7,306.6c-0.3-0.2-0.6-0.1-0.9,0.1c-0.2,0.1-0.2,0.4-0.1,0.6c0,0.1,0.1,0.1,0.1,0.1
						c0.3,0.1,0.6,0.1,0.9-0.1c0.2-0.1,0.2-0.4,0.1-0.5C191.8,306.7,191.7,306.6,191.7,306.6 M204.7,314.1c-0.3-0.2-0.6-0.1-0.9,0.1
						c-0.2,0.1-0.2,0.4-0.1,0.6c0,0,0.1,0.1,0.1,0.1c0.3,0.2,0.7,0.1,0.9-0.1c0.2-0.1,0.2-0.4,0.1-0.5
						C204.7,314.2,204.7,314.1,204.7,314.1 M205.9,314.9c-0.3-0.2-0.6-0.1-0.9,0.1c-0.2,0.1-0.2,0.4-0.1,0.6c0,0.1,0.1,0.1,0.1,0.1
						c0.3,0.1,0.6,0.1,0.9-0.1c0.2-0.1,0.2-0.3,0.1-0.5C206.1,315,206,314.9,205.9,314.9"/>
				</g>
			</g>
		</g>
	</g>
	<g>
		<g>
			<defs>
				<polygon id="SVGID_7_" points="97.2,407.8 102.9,402.4 126,415.8 120.4,421.2 				"/>
			</defs>
			<clipPath id="SVGID_8_">
				<use xlink:href="#SVGID_7_"  style="overflow:visible;"/>
			</clipPath>
			<g class="st26">
				<path class="st4" d="M105.7,404.4c-1.9-1-4.3-0.7-5.8,0.9c-1.3,1.2-1.5,3.2,0.4,4.3c1,0.5,2.1,0.7,3.2,0.4l-0.2-0.8
					c-0.7,0.2-1.6,0.2-2.3-0.2c-1.3-0.8-1.3-2.1-0.2-3.2c1.1-1.2,2.9-1.5,4.3-0.7c0.5,0.3,0.9,0.8,0.8,1.4h1.1
					C107,405.6,106.5,404.8,105.7,404.4"/>
				<path class="st4" d="M109.7,406.4l-0.8-0.4l-5.5,5.3l0.8,0.4l1.8-1.7c0.6-0.7,1.5-0.8,2.2-0.4c0.6,0.3,0.6,0.8,0,1.4l-2.1,2
					l0.8,0.4l2.2-2.2c0.8-0.8,0.7-1.6-0.2-2.1c-0.6-0.3-1.3-0.4-1.9-0.2l0,0L109.7,406.4"/>
				<path class="st4" d="M110.7,412.3c0.6-0.5,1.5-0.6,2.3-0.2c0.7,0.4,0.8,1,0.2,1.6L110.7,412.3 M113.5,411.6
					c-1.3-0.7-2.8-0.4-3.9,0.6c-1.1,1-0.9,2.2,0.2,2.9c0.7,0.4,1.6,0.6,2.5,0.3l-0.2-0.7c-0.5,0.2-1.1,0.1-1.6-0.1
					c-0.5-0.2-0.8-0.8-0.6-1.4c0.1-0.2,0.1-0.3,0.3-0.4l3.2,1.8l0.2-0.2C114.8,413.3,114.7,412.3,113.5,411.6"/>
				<path class="st4" d="M118.2,414.3c-1.3-0.7-2.9-0.5-3.9,0.5c-0.8,0.5-1,1.6-0.4,2.4c0.2,0.3,0.4,0.5,0.7,0.6
					c0.6,0.3,1.3,0.5,2,0.4l-0.1-0.8c-0.5,0.1-0.9,0-1.3-0.2c-0.8-0.4-0.8-1.2-0.1-1.9c0.6-0.7,1.6-0.9,2.5-0.5
					c0.4,0.2,0.6,0.5,0.6,1l1-0.1C119.1,415.1,118.7,414.6,118.2,414.3"/>
				<polyline class="st4" points="123.1,414.1 122.3,413.7 116.8,419 117.6,419.4 119.4,417.7 119.4,420.5 120.5,421.1 120.4,418.1 
					123.8,417.7 122.8,417.1 119.5,417.5 123.1,414.1 				"/>
			</g>
		</g>
	</g>
	<g>
		<path class="st8" d="M0.2,229.9v-0.1l0.6,3.4c0.1,0.4,0.2,0.8,0.3,1.2l0,0c0.1,0.3,0.2,0.7,0.4,1c0,0.1,0.1,0.2,0.1,0.3
			c0.1,0.3,0.2,0.5,0.4,0.7l0.2,0.4c0.1,0.2,0.3,0.4,0.4,0.6l0.3,0.4c0.1,0.1,0.1,0.2,0.2,0.3s0.2,0.2,0.3,0.3s0.2,0.3,0.3,0.4
			s0.4,0.4,0.5,0.5l0.4,0.3c0.2,0.2,0.4,0.4,0.7,0.5l0.3,0.3c0.4,0.3,0.7,0.5,1.1,0.7l104,60c0.4,0.2,0.8,0.5,1.3,0.6l0.3,0.2
			c0.4,0.2,0.9,0.3,1.3,0.5l0,0l0,0l0.6,0.2l0.4,0.1l0.3,0.1l0.5,0.1l1.1,0.2l0.4,0.1c0.5,0.1,1,0.1,1.5,0.2h0.1
			c0.4,0,0.8,0,1.2,0.1h0.2c0.6,0,1.2,0,1.8,0h0.2c0.6,0,1.3-0.1,1.9-0.2h0.2l0.4-0.1c0.3,0,0.5-0.1,0.7-0.1l0.7-0.1l0.7-0.2
			l0.2-0.1c0.4-0.1,0.8-0.2,1.2-0.4c0.1,0,0.3-0.1,0.4-0.1l0.1-0.1c0.6-0.2,1.3-0.5,1.9-0.8l0.3-0.1l0,0c0.5-0.2,1-0.5,1.5-0.8
			l0.3-0.2l0.3-0.2c0.4-0.3,0.8-0.5,1.2-0.8c0.2-0.1,0.3-0.2,0.5-0.4c0.5-0.4,1-0.8,1.5-1.3L357,84.9c2-1.9,3.4-4.3,4.1-6.9
			c0.3-1.4,0.3-2.9,0.1-4.3l-0.6-3.4c0,0.1,0,0.3,0,0.4c-0.6-3.5-2.8-6.6-6-8.3l-104-60c-7.4-4.3-18.8-2.7-25.2,3.5L4.3,218.6
			c-1.3,1.2-2.4,2.6-3.1,4.2c-0.5,1.1-0.9,2.3-1.1,3.5C-0.1,227.5-0.1,228.7,0.2,229.9z M5,236.9l-0.1-0.1L5,236.9L5,236.9z
			 M1.4,233L1.4,233L1.4,233z M0.8,232L0.8,232l0.1,0.1L0.8,232z M0.5,231C0.5,231,0.5,231,0.5,231C0.5,231,0.5,231,0.5,231L0.5,231
			z"/>
		<g class="st9">
			<path class="st4" d="M0.5,231c0.1,0.3,0.2,0.7,0.4,1c0,0.1,0.1,0.2,0.1,0.3c0.1,0.2,0.2,0.5,0.4,0.7l0.2,0.4l0.4,0.6l0.3,0.4
				c0.2,0.2,0.3,0.4,0.5,0.6s0.2,0.3,0.3,0.4s0.3,0.4,0.5,0.5l0.4,0.3c0.2,0.2,0.4,0.4,0.7,0.5l0.3,0.3c0.4,0.3,0.7,0.5,1.1,0.7
				l103.9,60c0.4,0.2,0.8,0.5,1.3,0.6l0.3,0.1c0.4,0.2,0.8,0.4,1.3,0.5h0.1c0.4,0.1,0.9,0.3,1.4,0.4l0.5,0.1l1.1,0.2l0.4,0.1
				c0.5,0.1,1,0.1,1.5,0.2h0.1c0.5,0,0.9,0.1,1.4,0.1s1.2,0,1.8,0h0.2c0.6,0,1.3-0.1,1.9-0.2c0.2,0,0.4-0.1,0.6-0.1
				c0.5-0.1,1-0.2,1.5-0.3l0.7-0.2c0.5-0.1,0.9-0.3,1.4-0.4l0.6-0.2c0.6-0.2,1.3-0.5,1.9-0.8l0.3-0.1c0.5-0.3,1-0.5,1.5-0.8l0.5-0.3
				c0.4-0.3,0.8-0.5,1.2-0.8l0.5-0.4c0.5-0.4,1-0.8,1.5-1.3l221-212.6c3.5-3.4,4.9-7.5,4.1-11.2l0.6,3.4c0.7,3.7-0.6,7.8-4.1,11.2
				L136,297.6c-0.5,0.5-1,0.9-1.5,1.3c-0.2,0.1-0.3,0.2-0.5,0.4c-0.4,0.3-0.8,0.6-1.2,0.8l-0.5,0.3c-0.5,0.3-1,0.5-1.5,0.8l-0.3,0.1
				c-0.6,0.3-1.2,0.5-1.9,0.8l-0.1,0.1c-0.1,0-0.3,0.1-0.4,0.1c-0.5,0.1-0.9,0.3-1.4,0.4l-0.7,0.2c-0.5,0.1-1,0.2-1.5,0.3l-0.4,0.1
				h-0.2c-0.6,0.1-1.3,0.2-1.9,0.2h-0.2c-0.6,0-1.2,0-1.8,0h-0.2c-0.4,0-0.8,0-1.2-0.1h-0.1c-0.5,0-1-0.1-1.5-0.2l-0.4-0.1l-1.1-0.2
				l-0.5-0.1l-0.3-0.1c-0.4-0.1-0.7-0.2-1.1-0.3h-0.1c-0.4-0.1-0.9-0.3-1.3-0.5l-0.3-0.2c-0.4-0.2-0.9-0.4-1.3-0.6L6.8,241
				c-0.4-0.2-0.8-0.5-1.1-0.7L5.3,240c-0.2-0.2-0.5-0.4-0.7-0.5l-0.4-0.3c-0.2-0.2-0.4-0.4-0.5-0.5s-0.2-0.3-0.3-0.4
				s-0.2-0.2-0.3-0.3s-0.1-0.2-0.2-0.3l-0.3-0.3c-0.1-0.2-0.3-0.4-0.4-0.6L2,236.4c-0.1-0.2-0.3-0.5-0.4-0.7c0-0.1-0.1-0.2-0.1-0.3
				c-0.1-0.3-0.3-0.7-0.4-1l0,0c-0.1-0.4-0.2-0.8-0.3-1.2l-0.6-3.4C0.2,230.2,0.3,230.6,0.5,231z"/>
		</g>
		<path class="st27" d="M185.9,72.3c-1-0.5-2.2-0.7-3.3-0.6c-1.2,0.1-2.2,0.6-3.1,1.4l-30,28.9c-0.7,0.7-1.1,1.6-1.1,2.6
			c0.1,1,0.7,1.8,1.6,2.2l34.7,20c2.1,1.1,4.7,0.7,6.4-0.9l30-28.9c0.7-0.7,1.1-1.6,1.1-2.6c-0.1-1-0.7-1.8-1.5-2.3L185.9,72.3
			 M184.2,127.3l-34.7-20c-1-0.5-1.7-1.4-1.8-2.5c0-1.1,0.4-2.2,1.3-2.9L179,73c1-0.9,2.2-1.5,3.5-1.6c1.3-0.2,2.6,0.1,3.7,0.7
			l34.7,20c1,0.5,1.6,1.4,1.8,2.5c0,1.1-0.4,2.2-1.3,2.9l-30,28.9C189.4,128.1,186.6,128.5,184.2,127.3 M185.5,67.4
			c-2.2-1.1-4.9-0.8-6.7,0.9l-36,34.6c-1.7,1.6-1.6,3.9,0.5,5.1l41.6,24c2.2,1.1,4.9,0.8,6.7-0.9l36-34.6c1.8-1.7,1.5-3.9-0.5-5.1
			L185.5,67.4"/>
		<path class="st27" d="M135.7,120.5c-1-0.5-2.2-0.7-3.3-0.6c-1.2,0.1-2.2,0.6-3.1,1.4l-30,28.9c-0.7,0.7-1.1,1.6-1.1,2.6
			c0.1,1,0.7,1.8,1.5,2.3l34.7,20c2.1,1,4.7,0.7,6.4-0.9l30-28.9c1.3-1,1.5-2.8,0.5-4.1c-0.3-0.3-0.6-0.6-0.9-0.8L135.7,120.5
			 M134.1,175.5l-34.7-20c-1-0.5-1.7-1.4-1.8-2.5c0-1.1,0.4-2.2,1.3-2.9l30-28.9c1-0.9,2.2-1.5,3.5-1.6c1.3-0.2,2.6,0.1,3.7,0.7
			l34.7,20c1,0.5,1.6,1.4,1.8,2.5c0,1.1-0.4,2.2-1.3,2.9l-30,28.9C139.3,176.3,136.5,176.7,134.1,175.5 M135.4,115.5
			c-2.2-1.1-4.9-0.8-6.7,0.9l-36,34.6c-1.3,1-1.6,2.9-0.6,4.2c0.3,0.4,0.6,0.7,1,0.9l41.6,24c2.2,1.1,4.9,0.8,6.7-0.9l36-34.6
			c1.8-1.7,1.5-3.9-0.5-5.1L135.4,115.5"/>
		<path class="st27" d="M243.7,105.7c-1-0.5-2.2-0.7-3.3-0.6c-1.2,0.1-2.2,0.6-3.1,1.4l-30,28.9c-0.7,0.7-1.1,1.6-1.1,2.6
			c0.1,1,0.7,1.8,1.5,2.2l34.7,20c2.1,1,4.7,0.7,6.4-0.9l30-28.9c0.8-0.6,1.2-1.6,1.1-2.6c-0.1-1-0.7-1.8-1.5-2.3L243.7,105.7
			 M242.1,160.7l-34.7-20c-1-0.5-1.6-1.4-1.8-2.5c0-1.1,0.5-2.2,1.3-2.9l30.1-28.9c1-0.9,2.2-1.5,3.5-1.6c1.3-0.2,2.6,0.1,3.7,0.7
			l34.7,20c1,0.5,1.6,1.4,1.8,2.5c0,1.1-0.4,2.2-1.3,2.9l-30,28.9C247.4,161.5,244.5,161.9,242.1,160.7 M243.5,100.7
			c-2.2-1.1-4.9-0.7-6.7,0.9l-36,34.6c-1.8,1.7-1.5,3.9,0.5,5.1l41.6,24c2.2,1.1,4.9,0.8,6.7-0.9l36-34.6c1.8-1.7,1.5-3.9-0.5-5.1
			L243.5,100.7"/>
		<path class="st27" d="M193.6,153.9c-2.1-1-4.7-0.7-6.4,0.9l-30,28.9c-0.7,0.7-1.1,1.6-1.1,2.6c0.1,1,0.7,1.8,1.5,2.3l34.7,20
			c1,0.5,2.2,0.7,3.3,0.5c1.2-0.1,2.2-0.6,3.1-1.4l30-28.9c0.7-0.7,1.1-1.6,1.1-2.6c-0.1-1-0.7-1.8-1.6-2.3L193.6,153.9 M192,208.9
			l-34.7-20c-1-0.5-1.6-1.4-1.8-2.5c0-1.1,0.5-2.2,1.3-2.9l30-28.9c1.9-1.8,4.8-2.2,7.1-1l34.7,20c1,0.5,1.6,1.4,1.8,2.5
			c0,1.1-0.4,2.2-1.3,2.9l-30,28.9c-1,0.9-2.2,1.5-3.5,1.6C194.4,209.7,193.1,209.5,192,208.9 M193.2,149c-2.2-1.1-4.9-0.8-6.7,0.9
			l-36,34.6c-1.7,1.6-1.6,3.9,0.5,5.1l41.6,24c2.2,1.1,4.9,0.8,6.7-0.9l36-34.6c1.8-1.7,1.5-3.9-0.5-5.1L193.2,149"/>
		<g>
			<g>
				<defs>
					<polygon id="SVGID_9_" points="217,58.3 224.8,50.8 294.3,91 286.5,98.5 					"/>
				</defs>
				<clipPath id="SVGID_10_">
					<use xlink:href="#SVGID_9_"  style="overflow:visible;"/>
				</clipPath>
				<g class="st28">
					<path class="st4" d="M223.5,54.3l0.9-0.9l4.8,2.8l-0.9,0.9L223.5,54.3 M224.8,53l0.9-0.9l4.8,2.8l-0.9,0.9L224.8,53
						 M231.6,54.7l-5.9-3.4l-3.2,3.1l2.7,1.5l-1,0.9l-3.6-2.1l-0.5,0.5l3.6,2.1l-1.8,1.8l0.6,0.3l1.9-1.8l3.6,2.1l0.5-0.5l-3.6-2.1
						l0.9-0.8c0.1,0,0.2,0,0.2,0l2.5,1.4L231.6,54.7"/>
					<path class="st4" d="M234,60.4l-0.7-0.4l-2.6,2.5c-0.6,0.7-1.6,0.8-2.4,0.4l-0.5,0.6c1,0.5,2.2,0.4,3.1-0.3L232,64l0,0l0.6-0.6
						l-1.1-0.6L234,60.4 M235.3,58.6c-0.3-0.2-0.6-0.1-0.8,0.1c-0.2,0.2-0.2,0.5,0,0.6c0.3,0.1,0.6,0.1,0.8-0.1
						c0.2-0.1,0.2-0.3,0.1-0.5C235.4,58.7,235.3,58.7,235.3,58.6"/>
					<path class="st4" d="M234.5,64.5c0-0.4,0.2-0.9,0.5-1.1c0.5-0.5,1.3-0.7,2-0.3c0.6,0.4,0.7,0.9,0.1,1.5
						c-0.5,0.6-1.4,0.7-2.1,0.3L234.5,64.5 M237.7,62.5c-1.1-0.6-2.5-0.5-3.4,0.4c-0.3,0.3-0.5,0.7-0.6,1.1l-1-0.6L232,64l0,0
						l2.3,1.3c1.1,0.8,2.6,0.6,3.6-0.4C238.7,64.1,238.8,63.1,237.7,62.5"/>
					<path class="st4" d="M241.4,64.7l-0.8-0.4l-2.6,2.5c-0.6,0.7-1.6,0.8-2.4,0.4l-0.5,0.7c1,0.5,2.2,0.4,3.1-0.3l1.1,0.6l0.6-0.6
						l-1.1-0.6L241.4,64.7"/>
					<path class="st4" d="M246.8,63.8l-0.8-0.4l-4,3.9c-0.7,0.7-1.1,0.8-1.9,0.4l-0.6,0.6c0.9,0.7,2.2,0.5,3-0.3L246.8,63.8"/>
					<polyline class="st4" points="248.8,65 248,64.5 242.4,70 243.1,70.4 248.8,65 					"/>
					<polyline class="st4" points="253.1,67.5 252.3,67.1 246.7,72.5 247.5,72.9 253.1,67.5 					"/>
					<path class="st4" d="M253.3,71.2l-1,0.3c0.5,1,0.3,2.1-0.4,2.9l-0.1,0.1l-2.8-1.6l-0.6,0.6l4.3,2.5l0.6-0.6l-0.8-0.5
						C253.6,74,253.9,72.5,253.3,71.2 M254.4,69.7c-0.3-0.2-0.6-0.1-0.8,0.1c-0.2,0.1-0.2,0.3-0.2,0.5c0,0.1,0.1,0.1,0.2,0.2
						c0.3,0.1,0.6,0.1,0.8-0.1C254.6,70.1,254.6,69.8,254.4,69.7"/>
					<path class="st4" d="M256.3,77.1c0.6-0.1,1.1-0.3,1.5-0.7c0.2-0.2,0.4-0.5,0.4-0.8c0.4,0.6,0.3,1.5-0.3,1.9
						c-0.1,0.1-0.2,0.2-0.3,0.3L256.3,77.1 M255.5,76.4c-0.2-0.4-0.1-1,0.2-1.3c0.4-0.4,1-0.5,1.5-0.3c0.4,0.2,0.4,0.7-0.1,1.2
						C256.7,76.4,256.1,76.6,255.5,76.4 M256.7,73.2l-0.7,0.5c0.2,0.1,0.5,0.3,0.7,0.4c-0.6,0-1.2,0.2-1.7,0.7
						c-0.4,0.3-0.6,0.7-0.5,1.2l-0.3-0.2l-0.8-0.5l-0.6,0.6l0.9,0.5c0.4,0.2,0.8,0.4,1.3,0.5c0.3,0.3,0.6,0.6,1,0.8l1.7,1
						c0.4-0.2,0.7-0.5,1-0.7C260.3,76.4,259.1,74.8,256.7,73.2"/>
					<path class="st4" d="M265,81.6l-0.7,0.4l0.8,0.8c0.5,0.5,0.5,1,0.2,1.2c-0.4,0.4-1.5,0.3-2.9-0.5c-1.6-0.9-1.8-1.6-1-2.4
						c0.3-0.2,0.6-0.5,0.9-0.6l-0.5-0.5c-0.4,0.2-0.8,0.5-1.2,0.8c-1.1,1-0.9,2.2,1.1,3.4c1.9,1.1,3.6,1.1,4.3,0.4
						c0.2-0.2,0.3-0.5,0.3-0.8l0.7,0.4l0,0l0.6-0.6l-0.9-0.5c-0.3-0.1-0.5-0.3-0.8-0.5L265,81.6"/>
					<path class="st4" d="M271.8,82.2l-0.8-0.4l-1.5,1.4c-0.7,0.7-1.2,0.8-1.9,0.4l-0.6,0.6l0,0c0.6,0.4,1.3,0.5,2,0.4
						c-0.1,0.4,0.1,0.9,0.8,1.2l0.6-0.6c-0.7-0.4-0.8-0.9-0.2-1.4L271.8,82.2 M273,80.4c-0.3-0.2-0.6-0.1-0.8,0.1
						c-0.2,0.1-0.2,0.3-0.1,0.5c0,0.1,0.1,0.1,0.1,0.1c0.3,0.1,0.6,0.1,0.8-0.1c0.2-0.1,0.2-0.3,0.1-0.5
						C273.1,80.5,273,80.5,273,80.4"/>
					<path class="st4" d="M273.2,86.4c0.1-0.6,0.1-1.3,0-1.9l0,0c0.5,0,1,0.2,1.5,0.4c0.7,0.4,0.8,0.9,0.5,1.2
						C274.5,86.4,273.8,86.6,273.2,86.4 M275.4,84.3c-0.7-0.4-1.5-0.6-2.3-0.6c-0.3,0.2-0.6,0.4-0.9,0.6c0,0.6,0,1.3,0,1.9
						c-0.5-0.2-1-0.4-1.4-0.7l-0.5-0.3l-0.6,0.6l0.3,0.2c0.7,0.5,1.5,0.8,2.3,1c0.5,0.6,1.1,1,1.7,1.4l0.6,0.3l0.6-0.6l-0.6-0.4
						c-0.3-0.2-0.7-0.4-1-0.7c0.8,0,1.6-0.2,2.3-0.7C276.7,85.8,276.4,85,275.4,84.3"/>
					<path class="st4" d="M277.2,89.1c0-0.4,0.2-0.8,0.5-1.1c0.5-0.6,1.3-0.7,2-0.3c0.6,0.4,0.7,0.9,0.1,1.5
						c-0.6,0.6-1.5,0.7-2.1,0.3L277.2,89.1 M280.4,87.1c-1.1-0.6-2.5-0.5-3.5,0.4c-0.3,0.3-0.5,0.7-0.6,1.1l-1-0.6l-0.6,0.6L277,90
						c1.1,0.8,2.6,0.6,3.6-0.4C281.4,88.8,281.6,87.8,280.4,87.1"/>
					<path class="st4" d="M288.8,88.1l-0.8-0.4l-4.3,4.1c-0.9,0.9-0.8,1.6,0.5,2.3l0.6-0.6c-0.7-0.4-0.8-0.8-0.3-1.3L288.8,88.1"/>
					<path class="st4" d="M286.7,94.6c0-0.4,0.2-0.9,0.5-1.1c0.5-0.6,1.3-0.7,2-0.3c0.6,0.4,0.7,0.9,0.1,1.5
						c-0.6,0.6-1.4,0.7-2.1,0.3L286.7,94.6 M289.9,92.6c-1.1-0.6-2.5-0.5-3.4,0.4c-0.3,0.3-0.6,0.7-0.6,1.1l-1-0.6l-0.6,0.6l2.3,1.3
						c1.1,0.8,2.6,0.6,3.6-0.4C290.9,94.3,291,93.3,289.9,92.6"/>
				</g>
			</g>
		</g>
		<g>
			<g>
				<defs>
					<polygon id="SVGID_11_" points="219.2,18.7 225,13.2 325.9,71.4 320.1,76.9 					"/>
				</defs>
				<clipPath id="SVGID_12_">
					<use xlink:href="#SVGID_11_"  style="overflow:visible;"/>
				</clipPath>
				<g class="st29">
					<path class="st4" d="M226.7,14.5c-0.8-0.5-1.8-0.5-2.7-0.2l0.5,0.6c0.5-0.2,1.2-0.2,1.7,0.1c0.4,0.2,0.6,0.7,0.5,1.1
						c-0.1,0.1-0.2,0.3-0.3,0.4c-0.6,0.6-1.6,0.6-2.3,0.1l-0.2-0.1l-0.5,0.5l0.2,0.1c1.1,0.6,1.2,1.3,0.6,1.9
						c-0.6,0.6-1.5,0.7-2.3,0.3c-0.7-0.4-0.8-0.8-0.4-1.5l-0.9-0.2c-0.4,0.8-0.1,1.6,0.9,2.2c1.1,0.7,2.6,0.6,3.5-0.3
						c0.6-0.4,0.7-1.2,0.3-1.8c-0.1-0.1-0.1-0.2-0.2-0.2l0,0c0.8,0.2,1.6,0,2.3-0.6C227.9,16.1,227.7,15.1,226.7,14.5"/>
					<path class="st4" d="M225.9,21c-0.3-0.2-0.7-0.1-1,0.1c-0.2,0.2-0.2,0.4-0.1,0.6c0,0,0.1,0.1,0.1,0.1c0.3,0.2,0.7,0.1,1-0.1
						c0.2-0.1,0.2-0.4,0.1-0.6C226,21.1,225.9,21,225.9,21"/>
					<path class="st4" d="M237.5,20.7c-1.9-1-4.3-0.6-5.9,0.9c-1.6,1.5-1.5,3.4,0.3,4.4c1,0.6,2.1,0.7,3.2,0.4l-0.1-0.7
						c-0.8,0.2-1.7,0.1-2.5-0.3c-1.4-0.8-1.3-2.3-0.1-3.4c1.2-1.2,3-1.5,4.5-0.8c0.6,0.3,0.9,0.9,0.9,1.5h1
						C238.8,21.9,238.3,21.1,237.5,20.7"/>
					<path class="st4" d="M241.6,22.7l-0.7-0.4l-5.6,5.4l0.7,0.4l1.7-1.7c0.6-0.8,1.7-1,2.6-0.5c0.6,0.4,0.5,0.9,0,1.4l-2.1,2
						l0.7,0.4l2.2-2.1c0.8-0.8,0.9-1.6-0.1-2.2c-0.6-0.3-1.2-0.4-1.9-0.2l0,0L241.6,22.7"/>
					<path class="st4" d="M242.4,31.2c-0.6-0.3-0.8-1-0.6-1.6c0.1-0.2,0.2-0.4,0.4-0.5c0.7-0.7,1.8-0.9,2.7-0.4
						c0.9,0.5,0.9,1.4,0.1,2.1C244.4,31.5,243.3,31.7,242.4,31.2 M245.5,28.2c-1.3-0.7-2.9-0.5-4,0.5c-0.8,0.6-1,1.7-0.4,2.4
						c0.2,0.2,0.4,0.4,0.7,0.6c1.3,0.7,2.9,0.5,4-0.5c0.8-0.6,1-1.6,0.4-2.4C246.1,28.5,245.8,28.3,245.5,28.2"/>
					<path class="st4" d="M247.5,34.1c-0.6-0.3-0.8-1-0.6-1.6c0.1-0.2,0.2-0.4,0.4-0.5c0.7-0.7,1.8-0.9,2.7-0.4
						c0.6,0.3,0.8,1,0.6,1.6c-0.1,0.2-0.2,0.4-0.4,0.5C249.5,34.4,248.4,34.6,247.5,34.1 M250.6,31.1c-1.3-0.7-2.9-0.5-4,0.5
						c-0.8,0.6-1,1.6-0.4,2.4c0.2,0.3,0.4,0.5,0.7,0.6c1.3,0.7,2.9,0.5,4-0.5c0.8-0.6,1-1.6,0.4-2.4
						C251.2,31.4,250.9,31.2,250.6,31.1"/>
					<path class="st4" d="M255,33.7c-0.8-0.5-1.8-0.5-2.5,0.1c-0.5,0.5-0.5,1,0.2,1.6s0.9,0.9,0.5,1.2c-0.4,0.3-1,0.3-1.4,0
						c-0.4-0.2-0.6-0.6-0.6-1h-0.9c-0.1,0.6,0.2,1.1,0.9,1.5c0.8,0.6,1.9,0.5,2.7-0.1c0.6-0.5,0.5-1.1-0.3-1.8
						c-0.6-0.5-0.7-0.9-0.5-1.1c0.4-0.3,0.9-0.3,1.3,0c0.3,0.2,0.5,0.5,0.4,0.9h0.9C255.9,34.5,255.7,34.1,255,33.7"/>
					<path class="st4" d="M256.4,36.8c0.7-0.5,1.6-0.6,2.3-0.2c0.5,0.2,0.7,0.8,0.5,1.3c-0.1,0.1-0.1,0.2-0.2,0.3L256.4,36.8
						 M259.3,36.1c-1.3-0.7-2.9-0.5-3.9,0.6c-1,1-1,2.2,0.2,2.9c0.8,0.4,1.7,0.6,2.5,0.3l-0.2-0.6c-0.6,0.2-1.3,0.1-1.8-0.2
						c-0.5-0.3-0.8-1-0.5-1.5c0.1-0.1,0.1-0.2,0.2-0.3l3.2,1.9l0.1-0.1C260.6,37.8,260.3,36.8,259.3,36.1"/>
					<path class="st4" d="M269.3,39.1c-1.9-1-4.3-0.6-5.9,0.9c-1.5,1.5-1.5,3.4,0.3,4.4c1,0.6,2.1,0.7,3.2,0.4l-0.1-0.7
						c-0.8,0.2-1.7,0.1-2.5-0.3c-1.4-0.8-1.3-2.3-0.1-3.4c1.2-1.2,3-1.5,4.5-0.8c0.6,0.3,0.9,0.9,0.9,1.5h1
						C270.6,40.3,270.1,39.5,269.3,39.1"/>
					<path class="st4" d="M269.5,46.8c-0.8-0.5-0.9-1.4-0.1-2.1c0.7-0.7,1.8-0.9,2.7-0.4c0.9,0.5,0.9,1.4,0.1,2.1
						C271.5,47.1,270.4,47.3,269.5,46.8 M272.6,43.8c-1.3-0.7-2.9-0.5-4,0.5c-0.8,0.6-1,1.7-0.4,2.4c0.2,0.2,0.4,0.4,0.7,0.6
						c1.3,0.7,2.9,0.5,4-0.5c0.8-0.6,0.9-1.7,0.4-2.4C273.1,44.1,272.9,43.9,272.6,43.8"/>
					<path class="st4" d="M277.8,46.8c-0.6-0.3-1.3-0.4-2-0.1l0,0l0.5-0.6l-0.6-0.4c-0.2,0.2-0.5,0.5-0.7,0.8l-2.7,2.6l0.7,0.4
						l1.7-1.7c0.6-0.7,1.6-0.9,2.4-0.5c0.1,0.1,0.2,0.2,0.3,0.3L278,47C277.9,46.9,277.9,46.8,277.8,46.8"/>
					<path class="st4" d="M280.8,48.5c-0.6-0.3-1.3-0.4-2-0.1l0,0l0.6-0.6l-0.6-0.4l-0.7,0.8l-2.7,2.6l0.7,0.4l1.7-1.7
						c0.6-0.7,1.6-0.9,2.4-0.5c0.1,0.1,0.2,0.1,0.3,0.2l0.6-0.5C281,48.6,280.9,48.6,280.8,48.5"/>
					<path class="st4" d="M280.6,50.8c0.6-0.5,1.6-0.6,2.3-0.2c0.5,0.2,0.7,0.8,0.5,1.3c-0.1,0.1-0.1,0.2-0.2,0.3L280.6,50.8
						 M283.5,50.1c-1.3-0.7-2.9-0.5-3.9,0.6c-1,1-1,2.2,0.2,2.9c0.7,0.4,1.6,0.6,2.5,0.3l-0.2-0.6c-0.6,0.2-1.3,0.1-1.8-0.2
						c-0.5-0.3-0.8-1-0.5-1.5c0.1-0.1,0.2-0.2,0.3-0.3l3.3,1.9l0.1-0.1C284.8,51.7,284.5,50.7,283.5,50.1"/>
					<path class="st4" d="M288.3,52.9c-1.3-0.7-2.9-0.5-3.9,0.6c-1.1,1-1,2.3,0.2,3c0.6,0.4,1.4,0.5,2.1,0.3l-0.1-0.7
						c-0.5,0.1-1,0.1-1.5-0.2c-0.8-0.5-0.8-1.3-0.1-2c0.7-0.7,1.8-0.9,2.6-0.5c0.4,0.2,0.6,0.6,0.6,1l0.9-0.1
						C289.2,53.7,288.8,53.2,288.3,52.9"/>
					<path class="st4" d="M292.5,53.9l-0.7-0.4l-1,1l-0.9-0.5l-0.5,0.5l0.9,0.5l-1.9,1.9c-0.9,0.8-0.8,1.3,0,1.7
						c0.3,0.2,0.6,0.3,0.9,0.3l0.5-0.5c-0.3,0-0.5-0.1-0.7-0.2c-0.4-0.2-0.5-0.5,0.1-1l1.8-1.8l1.2,0.7l0.5-0.5l-1.2-0.7L292.5,53.9
						"/>
					<path class="st4" d="M295.4,59.6l3.9-1.8l0,0l-1.4,3.2L295.4,59.6 M300.4,57.3l-0.7-0.4l-7.9,3.5l0.8,0.5l1.9-0.9l3,1.8
						l-0.6,1.7l0.9,0.5L300.4,57.3"/>
					<path class="st4" d="M304,61.9c-0.6-0.4-1.3-0.4-2-0.1l0,0c0.2-0.2,0.3-0.4,0.5-0.6l-0.6-0.4l-0.7,0.8l-2.7,2.6l0.7,0.4
						l1.7-1.6c0.6-0.8,1.7-1,2.6-0.6c0.6,0.4,0.5,0.9,0,1.4l-2.1,2l0.7,0.4l2.2-2.1C305,63.3,305,62.5,304,61.9"/>
					<path class="st4" d="M308,64.3c-0.8-0.5-1.8-0.5-2.5,0.1c-0.5,0.5-0.5,1,0.2,1.6s0.9,0.9,0.5,1.2c-0.4,0.3-1,0.3-1.4,0
						c-0.4-0.2-0.6-0.6-0.6-1h-0.9c-0.1,0.6,0.2,1.1,0.9,1.5c0.8,0.6,1.9,0.5,2.7-0.1c0.6-0.5,0.5-1.1-0.3-1.8
						c-0.6-0.5-0.7-0.8-0.5-1.1c0.4-0.3,0.9-0.3,1.3,0c0.3,0.1,0.5,0.5,0.4,0.9h0.9C308.9,65.1,308.6,64.5,308,64.3"/>
					<polyline class="st4" points="316,69 315.2,68.6 311.7,70.6 311.6,70.6 313.3,67.4 312.6,67 308.8,69 308.8,69 310.6,65.9 
						309.9,65.4 307.7,69.5 308.4,69.9 312.1,67.9 312.1,68 310.5,71.2 311.2,71.6 316,69 					"/>
					<path class="st4" d="M315.8,71.1c0.7-0.5,1.6-0.6,2.3-0.2c0.5,0.2,0.7,0.8,0.5,1.3c-0.1,0.1-0.1,0.2-0.2,0.3L315.8,71.1
						 M318.6,70.4c-1.3-0.7-2.8-0.5-3.9,0.6c-1,1-1,2.2,0.2,3c0.8,0.4,1.6,0.6,2.5,0.3l-0.2-0.6c-0.6,0.2-1.3,0.1-1.8-0.2
						c-0.5-0.3-0.8-1-0.5-1.5c0.1-0.1,0.2-0.2,0.3-0.3l3.3,1.9l0.1-0.1C320,72.1,319.7,71,318.6,70.4"/>
					<path class="st4" d="M323.6,73.2c-0.6-0.3-1.3-0.4-2-0.1l0,0c0.2-0.2,0.3-0.4,0.6-0.6l-0.6-0.4l-0.7,0.8l-2.8,2.6l0.7,0.4
						l1.7-1.7c0.6-0.7,1.6-1,2.4-0.5c0.1,0.1,0.2,0.2,0.3,0.3l0.6-0.5C323.7,73.3,323.6,73.3,323.6,73.2"/>
				</g>
			</g>
		</g>
		<g>
			<polygon class="st30" points="99.3,189.9 99.9,193.2 92.1,200.7 91.5,197.4 			"/>
			<polygon class="st30" points="87.9,200.9 88.5,204.1 80.7,211.7 80.1,208.4 			"/>
			<polygon class="st31" points="139.8,213.3 140.4,216.5 99.9,193.2 99.3,189.9 			"/>
			<polygon class="st31" points="93.9,222.4 94.6,225.6 72.1,212.7 71.4,209.4 			"/>
			<g>
				<g>
					<defs>
						<path id="SVGID_13_" d="M100.3,226.1l0.6,3.2c-0.7,0.2-1.4,0.2-2-0.1l-0.6-3.2C98.9,226.2,99.6,226.3,100.3,226.1z"/>
					</defs>
					<clipPath id="SVGID_14_">
						<use xlink:href="#SVGID_13_"  style="overflow:visible;"/>
					</clipPath>
					<g class="st32">
						<g>
							<path class="st33" d="M100.3,226.1l0.6,3.2l0,0L100.3,226.1L100.3,226.1"/>
							<path class="st34" d="M100.2,226.1l0.6,3.2l-0.1,0l-0.6-3.3L100.2,226.1"/>
							<path class="st35" d="M100.1,226.1l0.6,3.3h-0.1l-0.6-3.2L100.1,226.1"/>
							<path class="st36" d="M100,226.2l0.6,3.2h-0.2l-0.6-3.3L100,226.2"/>
							<path class="st37" d="M99.8,226.2l0.6,3.3h-0.2l-0.6-3.3H99.8"/>
							<path class="st38" d="M99.6,226.2l0.6,3.3H100l-0.6-3.3H99.6"/>
							<path class="st39" d="M99.3,226.2l0.6,3.3c-0.4,0-0.8-0.1-1.1-0.3l-0.6-3.2C98.6,226.1,99,226.2,99.3,226.2"/>
						</g>
					</g>
				</g>
			</g>
			<polygon class="st31" points="128.4,224.3 129,227.5 88.5,204.1 87.9,200.9 			"/>
			<polygon class="st31" points="81.9,234 82.6,237.2 52.4,219.8 51.7,216.5 			"/>
			<polygon class="st30" points="98.2,225.9 98.8,229.2 91.5,236.2 90.9,233 			"/>
			<polygon class="st31" points="121.5,238.3 122.2,241.6 100.9,229.3 100.3,226.1 			"/>
			<polygon class="st30" points="148.4,212.5 149.1,215.7 122.2,241.6 121.5,238.3 			"/>
			<polygon class="st30" points="86.9,236.8 87.5,240.1 72.1,254.9 71.5,251.7 			"/>
			<polygon class="st31" points="71.5,251.7 72.1,254.9 67.1,252.1 66.5,248.8 			"/>
			<polygon class="st30" points="121.8,250.8 122.4,254.1 118.4,257.9 117.8,254.7 			"/>
			<path class="st40" d="M90.9,233l30.9,17.9l-4,3.8l-30.9-17.8l-15.4,14.8l-5-2.9L82,234l-30.2-17.4l4-3.8l30.2,17.4l8.1-7.8
				l-22.5-13l26.9-25.9l50.1,28.9l-26.9,26l-21.3-12.3c-0.7,0.2-1.4,0.2-2-0.1L90.9,233z M80.1,208.4l40.5,23.4l7.8-7.5l-40.5-23.4
				L80.1,208.4 M99.3,189.9l-7.8,7.5l40.5,23.4l7.8-7.5L99.3,189.9"/>
			<polygon class="st31" points="117.8,254.7 118.4,257.9 87.5,240.1 86.9,236.8 			"/>
		</g>
		<path d="M246.4,128.7c0.4,0.2,0.9,0.1,1.2-0.2c0.3-0.3,0.3-0.7-0.1-0.9c-0.4-0.2-0.9-0.2-1.2,0.1c-0.2,0.2-0.3,0.5-0.1,0.7
			C246.2,128.6,246.3,128.7,246.4,128.7z"/>
		<path d="M230.6,131.3c1.7,1.1,3.8,1.1,5.5,0c0.2,0.4,0.6,0.8,1,1l7,4.1c0.8-0.4,1.5-0.9,2.2-1.6c1.6-1.5,1.8-3.1-0.1-4.2
			c-1.2-0.7-3.6-1.4-8.7,0.5c-0.3-0.2-0.4-0.6-0.2-0.9c0-0.1,0.1-0.1,0.2-0.2l2-1.9l-1.1-0.6l-2.6,2.5c-1.1,1.2-2.9,1.5-4.2,0.6
			c-1.4-0.8-1.7-1.8-0.5-3c0.6-0.5,1.2-0.9,1.9-1.3l-0.7-0.9c-0.9,0.4-1.7,0.9-2.5,1.6C228.4,128.2,228.4,130,230.6,131.3z
			 M245.2,131.3c1.2,0.7,1,1.8,0,2.8c-0.3,0.3-0.6,0.5-1,0.8l-5.5-3.2C241.9,130.6,244,130.7,245.2,131.3L245.2,131.3z"/>
		<path d="M251.3,133.7l-3.8,3.6c-0.9,1-2.3,1.2-3.4,0.6l-0.7,0.9c1.8,0.9,4,0.4,5.4-1.1l3.6-3.4L251.3,133.7z"/>
		<path d="M261.2,130c-0.6-0.4-1.4-0.3-1.9,0.2c-0.2,0.2-0.3,0.4-0.3,0.6l-0.4-0.3l-0.5,0.4l2,1.2l0.5-0.4l-1-0.6
			c0-0.2,0.1-0.4,0.3-0.5c0.3-0.2,0.7-0.3,1-0.1c0.1,0.1,0.3,0.2,0.4,0.3l0.5-0.4C261.5,130.3,261.4,130.1,261.2,130z"/>
		<polygon points="249.8,139.6 250.9,140.2 259.1,132.4 258,131.8 		"/>
		<path d="M179.4,178.6l5.1,3c3.4-2.1,4.4-4.4,1.5-6.1c-0.6-0.4-1.3-0.6-2-0.7l-0.6,1c0.5,0.1,1,0.3,1.5,0.6
			c2.4,1.4,0.7,3.2-0.5,3.9l-4.2-2.4c-1-0.6-1.2-1.2-0.4-1.9l6.2-5.9l-1.1-0.6l-6.2,6C177.5,176.5,177.6,177.5,179.4,178.6z"/>
		<path d="M190.1,187c0.3-0.3,0.3-0.7-0.1-0.9c-0.4-0.2-0.9-0.2-1.2,0.2c-0.2,0.2-0.3,0.5-0.1,0.8c0.1,0.1,0.1,0.1,0.2,0.2
			C189.3,187.4,189.7,187.4,190.1,187z"/>
		<path d="M205.8,186.8c-1.2-0.7-3.6-1.4-8.7,0.5c-0.3-0.3-0.4-0.7,0.1-1.1l1.9-1.8l-1.1-0.6l-1.4,1.4c-1,0.9-1.6,1.1-2.5,0.6l0,0
			c-1-0.6-1.1-1.3-0.3-2l2.3-2.3l-1.1-0.6l-2.1,2.1c-1,1-1.8,1.1-2.8,0.5s-1.2-1.2-0.4-1.9l6.2-5.9l-1.1-0.6l-6.2,6
			c-1.3,1.2-1.1,2.3,0.7,3.4c0.8,0.6,1.9,0.8,2.9,0.5c-0.1,0.6,0.2,1.3,1.2,1.8l0,0c0.7,0.5,1.5,0.7,2.4,0.6
			c-0.1,0.7,0.6,1.2,1.1,1.5l7,4.1c0.8-0.4,1.5-0.9,2.2-1.5C207.4,189.5,207.6,187.9,205.8,186.8z M204.7,190.5
			c-0.3,0.3-0.6,0.6-1,0.8l-5.5-3.2c3.3-1.1,5.4-1.1,6.6-0.4S205.8,189.5,204.7,190.5L204.7,190.5z"/>
		<path d="M199.7,100.9c0.2-0.2,0.3-0.5,0.1-0.8c-0.1-0.1-0.1-0.1-0.2-0.2c-0.4-0.2-0.9-0.1-1.2,0.2c-0.2,0.2-0.3,0.5-0.1,0.8
			c0.1,0.1,0.1,0.1,0.2,0.2C198.9,101.3,199.4,101.2,199.7,100.9z"/>
		<path d="M199.8,105.9c-1,0.9-1.7,1.1-2.6,0.6s-1-0.9-0.4-1.5l1.9-1.8l-1.1-0.6l-1.5,1.4c-1,1-1.7,1-2.5,0.5
			c-0.6-0.4-1-0.8-0.3-1.5l1.9-1.8l-1.1-0.6l-1.5,1.4c-1,1-1.7,1-2.6,0.5l-0.2-0.1l-1.1-0.6c0.4-0.2,0.7-0.4,1-0.7
			c1.2-1.1,1.6-2.6-0.2-3.6c-1.6-0.9-3.7-0.7-5.1,0.6c-0.3,0.3-0.5,0.6-0.7,0.9l-1.2-0.7c-1-0.6-1.2-1.3-0.4-2l2.3-2.3l-1.1-0.6
			l-2.2,2.1c-1,0.9-1.7,1.1-2.6,0.6s-1-0.9-0.4-1.5l1.9-1.8l-1.1-0.6l-1.5,1.4c-1,1-1.7,1-2.5,0.5c-0.6-0.4-1-0.8-0.3-1.5l1.9-1.8
			l-1.1-0.6l-2.6,2.4c-1.1,1.2-2.9,1.5-4.2,0.6c-1.4-0.8-1.7-1.8-0.5-3c0.6-0.5,1.2-0.9,1.9-1.2l-0.7-0.9c-0.9,0.4-1.7,0.9-2.5,1.6
			c-1.4,1.4-1.4,3.1,0.8,4.4c1.6,1.1,3.8,1.1,5.4,0c0.2,0.5,0.5,0.8,1,1c0.7,0.5,1.6,0.6,2.5,0.4c0,0.7,0.5,1.3,1.1,1.6
			c0.8,0.5,1.7,0.6,2.6,0.4c-0.1,0.6,0.3,1.2,1.2,1.8l1.7,1c0,0.3,0,0.7,0.1,1l0.8,0.5c0.8,0.5,1.8,0.7,2.8,0.7l1.8,1l0.2,0.1
			c0.7,0.5,1.6,0.7,2.5,0.6c-0.1,0.6,0.4,1.1,1.1,1.5c0.7,0.5,1.6,0.6,2.4,0.5c0,0.7,0.5,1.3,1.1,1.6c1.3,0.8,3,0.6,4.1-0.5l2.5-2.4
			l-1.1-0.6L199.8,105.9z M185.6,100.7l-0.7-0.4c0-0.7,0.3-1.3,0.8-1.8c0.8-0.8,2-1,3-0.5c0.9,0.6,0.9,1.4,0.1,2.2
			C188,101.1,186.6,101.3,185.6,100.7L185.6,100.7z"/>
		<path d="M202,100.2c0.2-0.2,0.3-0.5,0.1-0.8c-0.1-0.1-0.1-0.1-0.2-0.2c-0.4-0.2-0.9-0.1-1.2,0.2c-0.2,0.2-0.3,0.5-0.1,0.8
			c0.1,0.1,0.1,0.1,0.2,0.2C201.1,100.6,201.6,100.5,202,100.2z"/>
		<path d="M200.3,102.1c0.4,0.2,0.9,0.1,1.2-0.2c0.2-0.2,0.3-0.5,0.1-0.7c-0.1-0.1-0.1-0.1-0.2-0.2c-0.4-0.2-0.9-0.2-1.3,0.1
			c-0.2,0.2-0.3,0.5-0.1,0.8C200.2,102.1,200.3,102.1,200.3,102.1z"/>
		<path d="M127.5,140.3c-1.4-0.8-3.2-0.6-4.4,0.5c-0.4,0.4-0.7,0.9-0.8,1.4l-1-0.6l-0.8,0.8l4.6,2.6l0.8-0.8l-2.4-1.4
			c0-0.5,0.2-1,0.6-1.4c0.8-0.7,1.9-0.8,2.8-0.3c0.3,0.2,0.6,0.4,0.8,0.6l1-0.7C128.3,140.8,127.9,140.5,127.5,140.3z"/>
		<path d="M148.5,151.6c-1.6-0.9-3.6-0.7-5,0.6c-0.5,0.4-0.8,1-0.9,1.6l-1.5-0.9l0,0c-1-0.6-1.1-1.3-0.4-2l2.3-2.3l-1.1-0.6
			l-2.2,2.1c-1,0.9-1.6,1.1-2.6,0.6c-0.7-0.4-1-0.9-0.4-1.5l1.9-1.8l-1.1-0.6l-1.5,1.4c-1,1-1.7,1-2.5,0.5c-0.6-0.4-1-0.8-0.3-1.5
			l1.9-1.8l-1.1-0.6l-1.5,1.4c-1,1-1.7,1-2.6,0.5l-0.2-0.1c-1-0.6-1.2-1.2-0.4-1.9l6.2-5.9l-1.1-0.6l-6.2,6
			c-1.3,1.2-1.2,2.3,0.7,3.4l0.2,0.1c0.7,0.5,1.6,0.7,2.5,0.6c-0.1,0.6,0.4,1.1,1.1,1.5c0.7,0.5,1.6,0.6,2.4,0.5
			c0,0.7,0.5,1.3,1.1,1.6c0.8,0.5,1.7,0.6,2.6,0.4c-0.1,0.6,0.3,1.2,1.2,1.8l0,0l3.3,1.9c1.6,1.1,3.8,0.9,5.2-0.5
			C150,154,150.1,152.5,148.5,151.6z M147.6,154.6c-0.8,0.9-2.1,1-3.1,0.4l-0.7-0.4c0-0.6,0.3-1.2,0.8-1.6c0.7-0.8,2-1,2.9-0.4
			C148.4,152.9,148.5,153.8,147.6,154.6L147.6,154.6z"/>
	</g>
</g>
</svg>
